<?xml version="1.0" encoding="UTF-8"?>
<svg clip-rule="evenodd" fill-rule="evenodd" image-rendering="optimizeQuality" shape-rendering="geometricPrecision" text-rendering="geometricPrecision" viewBox="0 0 2429 2429" xml:space="preserve" xmlns="http://www.w3.org/2000/svg">
 <defs>
  <style type="text/css">
    .str5 {stroke:#F58634;stroke-width:0.908922;stroke-linecap:round;stroke-linejoin:round}
    .str0 {stroke:#F58634;stroke-width:2.10412;stroke-linecap:round;stroke-linejoin:round}
    .str1 {stroke:#FFF212;stroke-width:2.10412;stroke-linecap:round;stroke-linejoin:round}
    .str7 {stroke:#F58634;stroke-width:4.20824;stroke-linecap:round;stroke-linejoin:round}
    .str4 {stroke:#F58634;stroke-width:8.41647;stroke-linecap:round;stroke-linejoin:round}
    .str2 {stroke:#F58634;stroke-width:16.8318;stroke-linejoin:round}
    .str6 {stroke:#F58634;stroke-width:33.6635;stroke-linejoin:round}
    .str3 {stroke:#F58634;stroke-width:33.6635;stroke-linecap:round;stroke-linejoin:round}
    .fil2 {fill:none}
    .fil0 {fill:#F58634}
    .fil1 {fill:#FFF212}
  </style>
 </defs>
  <circle class="fil0 str0" cx="1215" cy="1215" r="1190"/>
  <circle class="fil0" cx="1215" cy="1215" r="1215"/>
  <circle class="fil1 str1" cx="1215" cy="1215" r="1152"/>
  <path class="fil0" d="m434 491s-71 127-12 357c60 230 210 322 210 322s-32 49-34 114 14 120 32 151 45 57 45 57-48 119 2 184c49 65 103 104 103 104l58-69 1 36s-71 88-149 147-168 93-182 108c-13 15 46 41 91 49s115-1 204-105c90-104-108 145-108 145l28 70 130 17 140-286-87 256 46 99 121 7 4-29s-1 58 89 75c-572-30-1020-502-1020-1074 0-272 103-534 288-733z"/>
  <path class="fil0" d="m1992 494s71 127 12 357c-60 230-210 322-210 322s32 49 34 114-14 120-32 151-45 57-45 57 48 119-2 184c-49 65-103 104-103 104l-58-69-1 36s71 88 149 147 168 93 182 108c13 15-46 41-91 49s-115-1-204-105c-90-104 108 145 108 145l-28 70-130 17-140-286 87 256-46 99-121 7-4-29s1 58-89 75c572-30 1020-502 1020-1074 0-272-103-534-288-733z"/>
  <path class="fil1 str1" d="m622 1881s-8-9-10-28c0 0-104 60-131 66s75-24 115-82c0 0-28 1-31-3 0 0-45 38-76 49-32 11-56 26-45 51s53 27 88 12c36-15 91-65 91-65z"/>
  <path class="fil1 str1" d="m1803 1884s8-9 10-28c0 0 104 60 131 66s-75-24-115-82c0 0 28 1 31-3 0 0 45 38 76 49 32 11 56 26 45 51s-53 27-88 12c-36-15-91-65-91-65z"/>
  <path class="fil1" d="m526 1795c-5-6-2-15-2-15s-75 20-100 25-60 16-57 44 39 38 75 35 99-50 111-66c-12-5-19-15-19-15-59 20-92 31-106 30s-6-6 12-9c18-2 79-25 87-30z"/>
  <path class="fil1" d="m1900 1798c5-6 2-15 2-15s75 20 100 25 60 16 57 44-39 38-75 35-99-50-111-66c12-5 19-15 19-15 59 20 92 31 106 30s6-6-12-9c-18-2-79-25-87-30z"/>
  <path class="fil1 str1" d="m490 1723s-13-13-18-20c-20 10-118 14-147 13s-29 24-12 38 59 39 121 34c63-5 88-22 88-22s3-18 8-26-3 1-18-9c0 0-70 24-134 14-63-10-20-9-6-9 14-1 108-9 117-14z"/>
  <path class="fil1 str1" d="m1936 1726s13-13 18-20c20 10 118 14 147 13s29 24 12 38-59 39-121 34c-63-5-88-22-88-22s-3-18-8-26 3 1 18-9c0 0 70 24 134 14 63-10 20-9 6-9-14-1-108-9-117-14z"/>
  <path class="fil1 str1" d="m317 1626c61 36 144 22 144 22s-4 26 5 39c0 0-102 26-179-17-76-43-41-80-35-88 7-7 26-9 64 3 38 13 140 24 127 22 5 6 27 19 27 19-55 3-148-1-153-1z"/>
  <path class="fil1 str1" d="m2109 1630c-61 36-144 22-144 22s4 26-5 39c0 0 102 26 179-17 76-43 41-80 35-88-7-7-26-9-64 3-38 13-140 24-127 22-5 6-27 19-27 19 55 3 148-1 153-1z"/>
  <path class="fil1 str1" d="m429 1590c-20-15-18-37-18-37s-98-26-122-48-7-2 37 8c43 10 64 11 70 11 6 1 18 0 18 0s-1-28 7-33c0 0-128-33-160-46-33-14-75 5-67 39s48 50 81 67c33 16 109 40 155 40z"/>
  <path class="fil1 str1" d="m1997 1593c20-15 18-37 18-37s98-26 122-48 7-2-37 8c-43 10-64 11-70 11-6 1-18 0-18 0s1-28-7-33c0 0 128-33 160-46 33-14 75 5 67 39s-48 50-81 67c-33 16-109 40-155 40z"/>
  <path class="fil1 str1" d="m389 1373c-115-39-164-94-164-94s33 62 164 127c4 17 20 48 33 58 12 10 18 9 11 10s-15 0-24-1c-8-1-53-8-104-34-52-25-95-66-130-119-36-53-5-92 15-98s55 23 89 53c35 29 95 59 130 68 0 0-19 16-19 30z"/>
  <path class="fil1 str1" d="m2037 1376c115-39 164-94 164-94s-33 62-164 127c-4 17-20 48-33 58-12 10-18 9-11 10s15 0 24-1c8-1 53-8 104-34 52-25 95-66 130-119 36-53 5-92-15-98s-55 23-89 53c-35 29-95 59-130 68 0 0 19 16 19 30z"/>
  <path class="fil1 str1" d="m281 1040c-14-23-38-27-65-25s-50-11-34 64c17 75 50 125 88 164s76 60 102 75 43 17 43 17-14-17-22-43c-8-27-1-36-1-36s-35-22-67-55-64-80-71-92c-7-13-21-35-23-43s-2-8 12 11c13 19 46 68 68 89s58 52 73 61c14 9 15 13 17 4s6-11 10-16 4-5-15-25c-18-19-98-128-115-149z"/>
  <path class="fil1 str1" d="m2145 1044c14-23 38-27 65-25s50-11 34 64c-17 75-50 125-88 164s-76 60-102 75-43 17-43 17 14-17 22-43c8-27 1-36 1-36s35-22 67-55 64-80 71-92c7-13 21-35 23-43s2-8-12 11c-13 19-46 68-68 89s-58 52-73 61c-14 9-15 13-17 4s-6-11-10-16-4-5 15-25c18-19 98-128 115-149z"/>
  <path class="fil1 str1" d="m779 1780s-33 43-80 75-65 19-68 4-3-32 35-54 58-56 60-64 55 40 54 39z"/>
  <path class="fil1 str1" d="m1646 1783s33 43 80 75 65 19 68 4 3-32-35-54-58-56-60-64-55 40-54 39z"/>
  <path class="fil1 str1" d="m664 1666s-42 33-65 42-64 29-53 66c11 36 42 48 85 31 44-17 76-51 77-72 2-21-45-68-45-67z"/>
  <path class="fil1 str1" d="m1761 1669s42 33 65 42 64 29 53 66c-11 36-42 48-85 31-44-17-76-51-77-72-2-21 45-68 45-67z"/>
  <path class="fil1 str1" d="m646 1557s-39 27-73 37-86 4-95 45c-8 41 14 62 38 68s73-1 99-17c27-16 46-41 46-41l-16-92z"/>
  <path class="fil1 str1" d="m1779 1560s39 27 73 37 86 4 95 45c8 41-14 62-38 68s-73-1-99-17c-27-16-46-41-46-41l16-92z"/>
  <path class="fil1 str1" d="m628 1444s-29 14-59 22c-30 7-70 10-85 10-14 0-54 11-55 46-2 35 13 66 68 69 56 3 104-16 116-23s38-24 38-24l15-55-38-44z"/>
  <path class="fil1 str1" d="m1798 1447s29 14 59 22c30 7 70 10 85 10 14 0 54 11 55 46 2 35-13 66-68 69-56 3-104-16-116-23s-38-24-38-24l-15-55 38-44z"/>
  <path class="fil1 str1" d="m597 1361s-53 3-97-6c-45-9-75-26-95 13-19 39 13 72 36 84s72 16 113 8c42-7 75-25 75-25l-32-74z"/>
  <path class="fil1 str1" d="m1828 1364s53 3 97-6c45-9 75-26 95 13 19 39-13 72-36 84s-72 16-113 8c-42-7-75-25-75-25l32-74z"/>
  <path class="fil1 str1" d="m593 1255c-22-3-62-15-79-24-18-9-43-28-73-19s-35 53-26 74 45 49 88 58 93 6 93 6-6-55-2-95z"/>
  <path class="fil1 str1" d="m1833 1258c22-3 62-15 79-24 18-9 43-28 73-19s35 53 26 74-45 49-88 58-93 6-93 6 6-55 2-95z"/>
  <path class="fil1 str1" d="m624 1176c-28-17-56-48-77-69s-30-34-62-34c-32-1-41-9-42 38s20 69 45 89c25 19 80 50 106 48s24-58 28-72z"/>
  <path class="fil1 str1" d="m1802 1179c28-17 56-48 77-69s30-34 62-34c32-1 41-9 42 38s-20 69-45 89c-25 19-80 50-106 48s-24-58-28-72z"/>
  <path class="fil1 str1" d="m498 1048c-28-43-69-118-80-158s-25-79-50-105-64-40-79-43-21 8-24 23-22 100 16 198 52 114 77 148c24 34 53 72 53 72l11 12s11-11 19-12-7-3-13-32c-5-28-2-33-1-41s7-24 7-24-27-53-52-101c-24-48-54-116-54-134s8 21 26 50 74 122 84 135c11 13 16 23 16 23s14-11 44-11z"/>
  <path class="fil1 str1" d="m1927 1051c28-43 69-118 80-158s25-79 50-105 64-40 79-43 21 8 24 23 22 100-16 198-52 114-77 148c-24 34-53 72-53 72l-11 12s-11-11-19-12 7-3 13-32c5-28 2-33 1-41s-7-24-7-24 27-53 52-101c24-48 54-116 54-134s-8 21-26 50-74 122-84 135c-11 13-16 23-16 23s-14-11-44-11z"/>
  <path class="fil2 str2" d="m791 1451c-74 79-36 245 68 259"/>
  <path class="fil2 str2" d="m1634 1454c74 79 36 245-68 259"/>
  <path class="fil2 str2" d="m738 1467c-75 80-23 261 83 274"/>
  <path class="fil2 str2" d="m1687 1471c75 80 23 261-83 274"/>
  <path class="fil2 str2" d="m776 1150c-123 80-75 276 16 302"/>
  <path class="fil2 str2" d="m1649 1153c123 80 75 276-16 302"/>
  <path class="fil2 str2" d="m749 1126c-153 82-102 316-10 343"/>
  <path class="fil2 str2" d="m1677 1129c153 82 102 316 10 343"/>
  <polygon class="fil1" points="898 1110 849 1153 821 1229 826 1293 849 1345 882 1380 919 1295 964 1171"/>
  <polygon class="fil1" points="1527 1113 1576 1156 1605 1232 1600 1296 1577 1348 1544 1383 1506 1298 1462 1174"/>
  <path class="fil2 str3" d="m902 1392c-116-59-109-261 19-282"/>
  <path class="fil2 str3" d="m1524 1395c116-59 109-261-19-282"/>
   <polygon class="fil1" points="1009 1721 1047 1735 1082 1743 1111 1745 1119 1747 1122 1793 1117 1850 1108 1884 1092 1913 1072 1928 1052 1930 1037 1922 1023 1904 1014 1883 1008 1863 1004 1842 1002 1817 1001 1793 1003 1761"/>
   <path class="fil2 str4" d="m1009 1721c-22 100 2 205 47 209s76-74 63-183"/>
   <path class="fil0" d="m1058 1746c-1 4-8 109 6 146-3-16 1-102 12-140l-18-6z"/>
   <polygon class="fil1" points="1416 1725 1378 1738 1343 1746 1314 1748 1306 1750 1303 1796 1308 1853 1317 1887 1333 1916 1354 1931 1374 1933 1388 1925 1402 1907 1412 1886 1417 1867 1421 1846 1424 1820 1424 1796 1423 1765"/>
   <path class="fil2 str4" d="m1416 1725c22 100-2 205-47 209s-76-74-63-183"/>
   <path class="fil0" d="m1368 1749c1 4 8 109-6 146 3-16-1-102-12-140l18-6z"/>
   <polygon class="fil1" points="1062 1599 1100 1613 1135 1621 1164 1623 1172 1625 1175 1670 1170 1728 1161 1762 1145 1791 1124 1806 1105 1808 1090 1800 1076 1782 1066 1761 1061 1741 1057 1720 1054 1695 1054 1671 1055 1639"/>
   <path class="fil2 str4" d="m1062 1599c-22 100 2 205 47 209s76-74 63-183"/>
   <path class="fil0" d="m1110 1623c-1 4-8 109 6 146-3-16 1-102 12-140l-18-6z"/>
   <polygon class="fil1" points="1364 1602 1326 1616 1291 1624 1262 1626 1254 1628 1251 1674 1256 1731 1265 1765 1281 1794 1301 1809 1321 1811 1336 1803 1350 1785 1359 1764 1365 1744 1369 1723 1371 1698 1372 1674 1370 1642"/>
   <path class="fil2 str4" d="m1364 1602c22 100-2 205-47 209s-76-74-63-183"/>
   <path class="fil0" d="m1315 1627c1 4 8 109-6 146 3-16-1-102-12-140l18-6z"/>
   <polygon class="fil1" points="868 1579 891 1620 913 1652 933 1675 938 1683 930 1727 915 1778 902 1802 885 1818 868 1817 854 1804 845 1787 839 1760 837 1733 837 1711 839 1688 843 1663 847 1640 855 1612"/>
   <path class="fil2 str4" d="m868 1579c-36 78-41 193-11 229s67-14 81-125"/>
   <path class="fil0" d="m896 1637c-1 3-28 96-26 141 1-18 22-94 37-122l-11-18z"/>
   <polygon class="fil1" points="1558 1582 1535 1623 1512 1656 1493 1678 1488 1686 1495 1730 1510 1781 1524 1806 1541 1821 1558 1821 1572 1808 1580 1790 1586 1763 1588 1737 1588 1714 1586 1692 1583 1666 1578 1644 1571 1615"/>
   <path class="fil2 str4" d="m1558 1582c36 78 41 193 11 229s-67-14-81-125"/>
   <path class="fil0" d="m1530 1640c1 3 28 96 26 141-1-18-22-94-37-122l11-18z"/>
   <polygon class="fil1" points="937 1650 966 1676 994 1694 1018 1705 1024 1709 1020 1759 1008 1821 996 1854 978 1881 959 1892 942 1888 931 1876 922 1852 917 1827 915 1804 915 1780 917 1752 920 1725 926 1691"/>
   <path class="fil2 str4" d="m937 1650c-32 103-28 224 9 241s73-59 78-181"/>
   <path class="fil0" d="m973 1690c-1 4-22 116-16 161 0-19 16-110 30-149l-14-12z"/>
   <polygon class="fil1" points="1489 1653 1459 1679 1432 1697 1408 1708 1401 1712 1406 1762 1418 1824 1430 1858 1447 1885 1467 1896 1483 1891 1494 1879 1504 1855 1508 1830 1510 1807 1510 1783 1509 1755 1506 1729 1500 1695"/>
   <path class="fil2 str4" d="m1489 1653c32 103 28 224-9 241s-73-59-78-181"/>
   <path class="fil0" d="m1452 1693c1 4 22 116 16 161 0-19-16-110-30-149l14-12z"/>
   <polygon class="fil1" points="1003 1545 1042 1560 1079 1569 1109 1571 1117 1573 1118 1622 1111 1684 1100 1720 1082 1752 1061 1768 1040 1770 1025 1762 1011 1742 1002 1720 997 1698 993 1676 992 1649 992 1623 995 1588"/>
   <path class="fil2 str4" d="m1003 1545c-26 108-6 221 41 225s82-79 73-198"/>
   <path class="fil0" d="m1053 1571c-1 4-13 118 1 158-3-18 5-110 18-151l-18-6z"/>
   <polygon class="fil1" points="1422 1548 1383 1563 1347 1572 1317 1574 1309 1576 1307 1625 1315 1687 1325 1723 1343 1755 1365 1771 1386 1773 1401 1765 1415 1745 1424 1723 1429 1701 1432 1679 1434 1652 1433 1626 1430 1592"/>
   <path class="fil2 str4" d="m1422 1548c26 108 6 221-41 225s-82-79-73-198"/>
   <path class="fil0" d="m1373 1574c1 4 13 118-1 158 3-18-5-110-18-151l18-6z"/>
   <polygon class="fil1" points="861 1419 884 1460 906 1492 925 1515 930 1523 921 1567 903 1618 888 1642 870 1658 852 1657 838 1644 830 1627 825 1600 824 1573 825 1551 827 1528 832 1503 838 1480 847 1452"/>
   <path class="fil2 str4" d="m861 1419c-40 78-50 193-20 229s70-14 89-125"/>
   <path class="fil0" d="m888 1477c-1 3-33 96-33 141 2-18 27-94 43-122l-11-18z"/>
   <polygon class="fil1" points="1524 1422 1512 1467 1500 1505 1487 1532 1484 1540 1504 1581 1534 1625 1555 1645 1577 1655 1594 1650 1604 1634 1607 1615 1605 1587 1600 1562 1593 1540 1585 1519 1574 1496 1562 1475 1546 1450"/>
   <path class="fil2 str4" d="m1524 1422c59 65 98 173 78 216s-72 4-119-98"/>
   <path class="fil0" d="m1512 1485c2 3 57 84 68 128-6-16-50-84-73-107l6-21z"/>
   <polygon class="fil1" points="930 1490 960 1516 988 1534 1013 1545 1019 1549 1013 1599 998 1661 984 1694 965 1721 944 1732 927 1728 916 1716 907 1692 903 1667 902 1644 903 1620 906 1592 910 1565 917 1531"/>
   <path class="fil2 str4" d="m930 1490c-37 103-37 224 0 241 38 17 78-59 89-181"/>
   <path class="fil0" d="m967 1530c-1 4-28 116-23 161 0-19 20-110 37-149l-14-12z"/>
   <polygon class="fil1" points="1495 1493 1465 1519 1437 1537 1413 1548 1406 1552 1413 1602 1428 1664 1442 1698 1461 1725 1481 1736 1498 1731 1509 1719 1518 1695 1522 1670 1523 1647 1523 1623 1520 1595 1516 1569 1508 1535"/>
   <path class="fil2 str4" d="m1495 1493c37 103 37 224 0 241-38 17-78-59-89-181"/>
   <path class="fil0" d="m1458 1533c1 4 28 116 23 161 0-19-20-110-37-149l14-12z"/>
   <polygon class="fil1" points="1073 1443 1120 1457 1163 1465 1199 1467 1209 1469 1210 1514 1202 1572 1189 1605 1167 1634 1141 1650 1117 1651 1099 1644 1082 1626 1071 1605 1065 1585 1061 1564 1059 1539 1060 1515 1063 1483"/>
   <path class="fil2 str4" d="m1073 1443c-31 100-7 205 49 209s97-74 87-183"/>
   <path class="fil0" d="m1132 1467c-1 4-15 109 1 146-3-16 6-102 21-140l-22-6z"/>
   <polygon class="fil1" points="1353 1440 1306 1454 1263 1462 1227 1464 1217 1466 1215 1511 1224 1569 1237 1603 1258 1632 1284 1647 1309 1648 1327 1641 1344 1623 1354 1602 1361 1582 1364 1561 1366 1536 1366 1512 1362 1480"/>
   <path class="fil2 str4" d="m1353 1440c31 100 7 205-49 209s-97-74-87-183"/>
   <path class="fil0" d="m1293 1464c1 4 15 109-1 146 3-16-6-102-21-140l22-6z"/>
   <polygon class="fil1" points="903 1301 930 1341 957 1374 980 1397 986 1404 974 1449 953 1499 936 1524 914 1539 893 1539 876 1526 866 1508 860 1481 858 1455 860 1432 863 1410 868 1385 875 1362 886 1334"/>
   <path class="fil2 str4" d="m903 1301c-48 78-60 193-24 229s84-14 107-125"/>
   <path class="fil0" d="m936 1358c-2 3-40 96-39 141 2-18 32-94 52-122l-13-18z"/>
   <polygon class="fil1" points="1455 1298 1444 1342 1431 1380 1419 1406 1416 1415 1436 1456 1465 1500 1486 1520 1507 1531 1524 1526 1534 1510 1537 1491 1535 1463 1529 1438 1523 1416 1514 1395 1504 1372 1493 1351 1477 1326"/>
   <path class="fil2 str4" d="m1455 1298c58 66 96 174 77 216s-70 4-116-99"/>
   <path class="fil0" d="m1444 1360c2 3 55 85 66 128-6-17-49-85-72-108l5-20z"/>
   <polygon class="fil1" points="1268 1453 1230 1467 1195 1475 1166 1477 1158 1478 1155 1524 1160 1582 1169 1615 1185 1644 1206 1660 1225 1661 1240 1654 1254 1636 1264 1615 1269 1595 1273 1574 1276 1549 1276 1525 1275 1493"/>
   <path class="fil2 str4" d="m1268 1453c22 100-2 205-47 209s-76-74-63-183"/>
   <path class="fil0" d="m1220 1477c1 4 8 109-6 146 3-16-1-102-12-140l18-6z"/>
   <polygon class="fil1" points="986 1371 1021 1397 1055 1416 1084 1426 1092 1431 1085 1481 1067 1542 1050 1576 1027 1603 1003 1614 982 1610 969 1597 958 1574 954 1548 952 1525 953 1501 956 1473 961 1447 970 1413"/>
   <path class="fil2 str4" d="m986 1371c-45 103-45 224 0 241s94-59 106-181"/>
   <path class="fil0" d="m1030 1411c-1 4-33 116-27 161 1-19 24-110 44-149l-17-12z"/>
   <polygon class="fil1" points="1437 1371 1401 1397 1367 1416 1338 1426 1330 1431 1338 1481 1356 1542 1373 1576 1396 1603 1420 1614 1441 1610 1454 1598 1464 1574 1469 1549 1470 1525 1469 1501 1466 1473 1461 1447 1452 1413"/>
   <path class="fil2 str4" d="m1437 1371c45 103 45 224 0 241s-94-59-106-181"/>
   <path class="fil0" d="m1393 1412c1 4 33 116 27 161-1-19-24-110-44-149l17-12z"/>
  <path class="fil0" d="m758 931c57 123 119 192 143 210 30 23 40 41 21 69-20 28-53 62-8 123s81 108 231 141c157 34 280-85 289-96s52-45 16-97c-37-52-33-72-12-83 20-11 149-102 198-170 79-93 127-214 127-345 0-294-239-533-533-533s-533 239-533 533c0 90 22 174 61 248z"/>
   <path class="fil0" d="m1316 110c-434-27-830 162-1055 538-114 190-161 410-155 630 16 551 453 1003 1001 1058l56 4-56-4c-560-50-990-500-1028-1057-15-224 49-450 167-641 233-374 632-561 1069-529z"/>
  <path class="fil2" d="m1316 110c-34-3-68-5-102-5-620 0-1122 501-1122 1118 0 598 472 1090 1071 1117"/>
   <path class="fil0" d="m1109 113c434-27 830 162 1055 538 114 190 161 410 155 630-16 551-453 1003-1001 1058l-56 4 56-4c560-50 990-500 1028-1057 15-224-49-450-167-641-233-374-632-561-1069-529z"/>
  <path class="fil2" d="m1109 113c34-3 68-5 102-5 620 0 1122 501 1122 1118 0 598-472 1090-1071 1117"/>
   <path class="fil1" d="m950 422l139 142 6-4-168-186 16-13 157 194-139-191 16-10 132 198-93-159 14-7 92 167c2-2 5-3 8-6l-122-224 14-6 114 225c2-2 5-4 7-7l-136-274 19-9 123 278 5-4-97-248 15-6 88 249 5-4-58-188 15-5 50 187c2-1 4-3 6-4l-58-259 17-4 49 258c2-1 5-3 7-4l-45-296 24-4 32 294c4-2 7-4 11-5l-30-262 19-1 19 260c2-1 5-2 7-2l-9-186h17v184c3-1 6-1 10-2l2-260 24 2-17 257c3 0 6 0 10-1l26-274 23 3-40 271c3 0 5 0 8 1l41-243 22 4-51 241c3 1 5 1 8 2l39-157 18 5-47 154c2 1 4 1 6 2l80-218 20 7-91 213c2 1 4 1 7 2l111-235 22 10-123 229c2 1 5 2 7 3l114-196 19 11-122 190c2 1 4 2 5 3l90-136 16 12-96 129c2 1 4 2 5 3l133-171 20 18-145 159c3 2 5 4 7 6l166-171 16 18-176 158c3 3 7 6 10 9l162-145 12 15-167 136 5 5 110-81 9 14-112 75c2 3 4 5 7 8l176-110 9 16-170 103 89-42 6 13-87 42 160-67 8 18-162 65c4 7 10 26 14 34l-27-34s-25-33-57-68-96-54-140-50-74 27-107 54c-33 28-55 40-61 36l-149-139 12-12z"/>
   <path class="fil2" d="m1152 524c-2 1-3 3-5 4"/>
   <path class="fil2" d="m1163 515c-2 1-4 3-5 4"/>
   <path class="fil1" d="m942 414l-16-17-13 14 16 15 13-12zm-7-63l-17-20-16 16 16 18 17-14zm37-5l-11-17-15 13 10 14 16-11zm48 22l-17-31-15 9 18 30 14-8z"/>
   <polygon class="fil1" points="930 426 942 414 926 397 914 411"/>
   <polygon class="fil1" points="918 365 935 351 919 331 902 347"/>
   <polygon class="fil1" points="956 357 972 346 961 330 946 343"/>
   <polygon class="fil1" points="1006 377 1020 369 1003 338 988 347"/>
   <polygon class="fil1" points="1017 308 1006 287 992 295 1003 315"/>
   <path class="fil1" d="m1019 238l-10-23-19 13 9 19 20-9zm47 20l-9-26-16 8 9 23 16-6zm48 38l-7-27-17 6 8 26 16-4z"/>
   <polygon class="fil1" points="1133 224 1128 198 1109 202 1115 227"/>
   <polygon class="fil1" points="1168 180 1166 159 1141 163 1144 183"/>
   <polygon class="fil1" points="1201 212 1199 182 1178 185 1181 211"/>
   <polygon class="fil1" points="1236 268 1236 238 1217 239 1218 268"/>
   <polygon class="fil1" points="1272 207 1273 183 1248 184 1247 205"/>
   <polygon class="fil1" points="1291 191 1293 169 1318 172 1315 193"/>
   <polygon class="fil1" points="1346 226 1351 202 1328 197 1323 222"/>
   <polygon class="fil1" points="1366 297 1374 269 1353 265 1347 291"/>
   <polygon class="fil1" points="1423 256 1430 239 1409 227 1402 247"/>
   <polygon class="fil1" points="1472 247 1482 229 1458 217 1450 235"/>
   <polygon class="fil1" points="1488 298 1502 276 1483 260 1469 285"/>
   <polygon class="fil1" points="1484 358 1496 342 1479 327 1467 345"/>
   <polygon class="fil1" points="1548 340 1560 327 1537 306 1526 320"/>
   <polygon class="fil1" points="1591 357 1604 345 1586 325 1574 338"/>
   <polygon class="fil1" points="1597 398 1610 387 1597 371 1585 382"/>
   <polygon class="fil1" points="1568 463 1595 445 1586 428 1558 448"/>
   <path class="fil1" d="m1633 462l20-12-8-18-22 14 10 16zm-61 69l18-9-6-13-19 9 6 13zm72-2l21-9-8-18-22 9 8 18z"/>
   <polygon class="fil1" points="999 247 1019 238 1009 215 990 228"/>
   <polygon class="fil1" points="1017 308 1006 287 992 295 1003 315"/>
  <path class="fil1" d="m1104 565c-16 8-20 10-35 11-14 1-12 18-4 29s13 35-8 50c-22 16-75 48-145 68-69 20-111 25-126 56-15 30-14 63-12 70 3 7-4-15 45-26s75-6 115-10 70-13 95-14 55 13 66 26 17 22 18 31 27-46 24-71 13 5 2 44c-11 38-41 82-58 96-18 15-44 45-35 81 8 35 43 54 78 52s71-20 107-78c36-59 25-115 23-169-1-17 0-42 3-35 3 8 7 18 9 43 3 25 10 115-22 174-32 58-85 79-108 80s-39-1-40-2-18 31-36 47-80 70-103 112-37 77 10 138c47 60 184 114 283 93s140-67 160-86 52-44 9-86-108-93-37-248 138-209 126-309c-13-106-52-147-68-159-16-11-39-55-71-69-32-13-55-28-91-27s-79 11-104 35c-24 23-53 46-69 51z"/>
  <path class="fil0" d="m1059 650c14-24-4-48-2-64s16-8 16-8c-6-4-13 6-8 18s13 34 5 50c0 0 111-69 276-52-165-10-283 69-283 69-5 4-10-4-4-12z"/>
  <path class="fil0" d="m1212 737c13-5 57 42 115 6 58-35 55-86 54-100 0-13-17-36-6-44s3 1 7 8 32 34 11 92c-21 57-118 105-180 38z"/>
  <path class="fil2" d="m648 313c-39 25-77 52-112 81"/>
  <path class="fil2" d="m1778 316c39 25 77 52 112 81"/>
  <path class="fil0" d="m793 833c2-10 29-30 62-34 33-3 114-18 141-26 28-8 75-26 93-19 18 6 41 11 44 2 3-8-6-26-58-14-53 12-77 24-138 36-61 13-124 17-143 54z"/>
  <path class="fil0" d="m1112 661c-42 24-100 49-150 67-49 18-62 24-49 24 12 0 90-29 132-35s72-11 81-11c9-1 4-7-1-18s-3-37-12-27z"/>
  <path class="fil0" d="m1141 741c4 8 7 21 0 25-6 4-25 6-36 4s-40-7-42 0c-2 8 6 6 10 3 5-3 19-4 28-1s39 7 49-2 10-31-4-40-54 0-71 4-24 4-30 2-7 3-6 6c2 3 10 3 25-1 16-3 64-19 76-2z"/>
  <path class="fil1" d="m940 624c5 3 10 6 13 11 12 17 9 41-8 53s-41 9-53-8c-4-5-6-11-7-16-1 6-3 11-7 16-12 17-36 21-53 8-17-12-21-36-8-53 4-5 8-9 13-11-6 1-12 0-18-1-20-6-31-28-24-48 6-20 28-31 48-24 6 2 11 5 15 9-3-5-4-11-4-17 0-21 17-38 38-38s38 17 38 38c0 6-1 12-4 17 4-4 9-7 15-9 20-6 41 4 48 24 6 20-4 41-24 48-6 2-12 2-18 1z"/>
  <circle class="fil0" cx="886" cy="606" r="28"/>
  <circle class="fil1" cx="1479" cy="1048" r="28"/>
  <path class="fil1" d="m1667 740c0-12-10-22-22-22s-22 10-22 22v18h-18c-12 0-22 10-22 22s10 22 22 22h18v18c0 12 10 22 22 22s22-10 22-22v-18h18c12 0 22-10 22-22s-10-22-22-22h-18v-18z"/>
  <path class="fil0" d="m1165 908c-17-6-33 1-56 20-29 24-49 68-4 98 16 9 33 12 50 5 38-14 47-65 15-89-33-24-79 5-70 42 9 38 62 37 68 2 6-32-37-44-47-19-8 21 20 37 30 14 2-5 4 15-14 16-25 2-34-37-6-49 30-13 60 23 41 53-20 32-70 23-79-15-10-38 27-71 65-61 44 12 56 68 24 100-15 14-34 19-54 18-37-4-64-23-63-61s23-49 39-63 36-37 50-71c4-18 17-33 36-38 34-9 67 21 58 55s-53 42-71 14c-17-27 10-59 37-47 25 11 17 46-6 44-17-1-15-19-13-15 9 21 34 6 27-12-9-23-47-12-42 17 5 31 52 32 60-2s-32-60-62-38c-25 18-24 58 15 81l1 1c34 13 46-21 47-4 1 16-10 44-13 53-4 9-24 47-21 24 4-23-28-68-42-72z"/>
  <path class="fil1" d="m1195 916c-5-1-6 2-2 6 3 4 17 23 20 35s7 1 9-3 10-25 10-33 1-9-5-7-18 6-32 2z"/>
  <path class="fil0" d="m1207 930c4 4 6 11 7 14s6 0 8-9c3-9 3-12-1-11s-6 2-11 2-8 1-4 4z"/>
   <path class="fil0" d="m1185 678c-27 13-14 6-39 22 23-19 12-9 34-29l5 7z"/>
  <line class="fil2" x1="1183" x2="1146" y1="675" y2="700"/>
   <path class="fil0" d="m1177 666c-19 0-10-1-28 2 18-6 9-2 26-11l2 9z"/>
  <line class="fil2" x1="1176" x2="1149" y1="661" y2="668"/>
   <path class="fil0" d="m1174 655c-29-5-14-3-43-6l22-1 22-2v9z"/>
  <line class="fil2" x1="1175" x2="1131" y1="651" y2="649"/>
   <path class="fil0" d="m1175 643c-11-7-5-4-17-9 13 1 6 1 19 0l-2 9z"/>
  <line class="fil2" x1="1176" x2="1158" y1="638" y2="634"/>
   <path class="fil0" d="m1179 630c-7-7-3-4-11-9l7 1 7-1-3 9z"/>
  <line class="fil2" x1="1180" x2="1168" y1="626" y2="621"/>
   <path class="fil0" d="m1249 610c10-4 5-1 14-7-6 8-4 4-8 13l-6-7z"/>
  <line class="fil2" x1="1252" x2="1263" y1="613" y2="603"/>
   <polygon class="fil0" points="1255 619 1281 613 1305 605 1282 616 1259 628"/>
  <line class="fil2" x1="1257" x2="1305" y1="624" y2="605"/>
   <path class="fil0" d="m1266 646c32 6 16 4 48 7-32 0-16-1-49 2l1-9z"/>
  <line class="fil2" x1="1266" x2="1314" y1="650" y2="653"/>
   <path class="fil0" d="m1261 632l16 1 16-1c-20 5-10 2-30 10l-1-9z"/>
  <line class="fil2" x1="1262" x2="1293" y1="637" y2="631"/>
   <polygon class="fil0" points="1263 659 1286 671 1309 682 1285 674 1260 668"/>
  <line class="fil2" x1="1262" x2="1309" y1="663" y2="682"/>
   <path class="fil0" d="m1222 690l-3 17-1 17c-3-23-1-12-6-34h9z"/>
  <line class="fil2" x1="1218" x2="1219" y1="690" y2="724"/>
   <polygon class="fil0" points="1210 691 1201 706 1193 721 1198 705 1202 688"/>
  <line class="fil2" x1="1206" x2="1193" y1="690" y2="721"/>
   <path class="fil0" d="m1197 688c-20 17-10 8-28 26 15-21 8-10 21-32l7 6z"/>
  <line class="fil2" x1="1194" x2="1169" y1="685" y2="714"/>
   <path class="fil0" d="m1235 689l3 21 5 20c-10-26-5-13-17-38l9-3z"/>
  <line class="fil2" x1="1231" x2="1243" y1="690" y2="730"/>
   <path class="fil0" d="m1249 682l8 20 9 19c-16-23-7-12-25-34l8-5z"/>
  <line class="fil2" x1="1245" x2="1266" y1="684" y2="720"/>
   <path class="fil0" d="m1259 673c24 26 12 13 37 37-28-21-14-11-43-30l6-7z"/>
  <line class="fil2" x1="1256" x2="1296" y1="676" y2="710"/>
   <circle class="fil0" cx="1219" cy="646" r="38"/>
   <circle class="fil1" cx="1219" cy="646" r="27"/>
   <circle class="fil0" cx="1219" cy="646" r="19"/>
   <circle class="fil0" cx="1243" cy="576" r="12"/>
   <circle class="fil1" cx="1243" cy="576" r="10"/>
   <circle class="fil0" cx="1243" cy="576" r="5"/>
   <circle class="fil0" cx="1217" cy="511" r="13"/>
   <circle class="fil1" cx="1217" cy="511" r="11"/>
   <circle class="fil0" cx="1217" cy="511" r="5"/>
   <circle class="fil0" cx="1290" cy="569" r="13"/>
   <circle class="fil1" cx="1290" cy="569" r="11"/>
   <circle class="fil0" cx="1290" cy="569" r="5"/>
   <circle class="fil0" cx="1363" cy="567" r="13"/>
   <circle class="fil1" cx="1363" cy="567" r="11"/>
   <circle class="fil0" cx="1363" cy="567" r="5"/>
   <circle class="fil0" cx="1317" cy="512" r="13"/>
   <circle class="fil1" cx="1317" cy="512" r="11"/>
   <circle class="fil0" cx="1317" cy="512" r="5"/>
   <circle class="fil0" cx="1264" cy="519" r="14"/>
   <circle class="fil1" cx="1264" cy="519" r="12"/>
   <circle class="fil0" cx="1264" cy="519" r="5"/>
   <circle class="fil0" cx="1184" cy="553" r="13"/>
   <circle class="fil1" cx="1184" cy="553" r="11"/>
   <circle class="fil0" cx="1184" cy="553" r="5"/>
   <circle class="fil0" cx="1374" cy="535" r="13"/>
   <circle class="fil1" cx="1374" cy="535" r="11"/>
   <circle class="fil0" cx="1374" cy="535" r="5"/>
   <circle class="fil0" cx="1141" cy="584" r="11"/>
   <circle class="fil1" cx="1141" cy="584" r="9"/>
   <circle class="fil0" cx="1141" cy="584" r="4"/>
   <circle class="fil0" cx="1184" cy="588" r="11"/>
   <circle class="fil1" cx="1184" cy="588" r="9"/>
   <circle class="fil0" cx="1184" cy="588" r="4"/>
   <circle class="fil0" cx="1103" cy="586" r="11"/>
   <circle class="fil1" cx="1103" cy="586" r="9"/>
   <circle class="fil0" cx="1103" cy="586" r="4"/>
   <circle class="fil0" cx="1099" cy="615" r="11"/>
   <circle class="fil1" cx="1099" cy="615" r="9"/>
   <circle class="fil0" cx="1099" cy="615" r="4"/>
   <circle class="fil0" cx="1154" cy="553" r="11"/>
   <circle class="fil1" cx="1154" cy="553" r="9"/>
   <circle class="fil0" cx="1154" cy="553" r="4"/>
   <circle class="fil0" cx="1333" cy="542" r="11"/>
   <circle class="fil1" cx="1333" cy="542" r="9"/>
   <circle class="fil0" cx="1333" cy="542" r="4"/>
  <circle class="fil0 str5" cx="1083" cy="625" r="5"/>
  <circle class="fil0 str5" cx="1219" cy="561" r="6"/>
  <circle class="fil0 str5" cx="1210" cy="533" r="6"/>
  <circle class="fil0 str5" cx="1271" cy="552" r="6"/>
  <circle class="fil0 str5" cx="1335" cy="566" r="6"/>
  <circle class="fil0 str5" cx="1354" cy="515" r="6"/>
  <circle class="fil0 str5" cx="1080" cy="599" r="4"/>
  <circle class="fil0 str5" cx="1122" cy="592" r="4"/>
  <circle class="fil0 str5" cx="1135" cy="603" r="4"/>
  <circle class="fil0 str5" cx="1168" cy="594" r="4"/>
  <circle class="fil0 str5" cx="1216" cy="581" r="4"/>
  <circle class="fil0 str5" cx="1250" cy="548" r="5"/>
  <circle class="fil0 str5" cx="1238" cy="522" r="5"/>
  <circle class="fil0 str5" cx="1267" cy="573" r="5"/>
  <circle class="fil0 str5" cx="1356" cy="546" r="5"/>
  <circle class="fil0 str5" cx="1390" cy="561" r="5"/>
  <circle class="fil0 str5" cx="1385" cy="595" r="3"/>
  <circle class="fil0 str5" cx="1393" cy="589" r="4"/>
  <circle class="fil0 str5" cx="1404" cy="581" r="4"/>
  <circle class="fil0 str5" cx="1419" cy="572" r="5"/>
  <circle class="fil0 str5" cx="1288" cy="528" r="6"/>
  <circle class="fil0 str5" cx="1314" cy="545" r="6"/>
  <circle class="fil0 str5" cx="1287" cy="508" r="6"/>
  <circle class="fil0 str5" cx="1122" cy="569" r="4"/>
  <circle class="fil0 str5" cx="1195" cy="518" r="4"/>
  <circle class="fil0 str5" cx="1234" cy="495" r="4"/>
  <circle class="fil0 str5" cx="1259" cy="497" r="4"/>
  <circle class="fil0 str5" cx="1276" cy="488" r="4"/>
  <circle class="fil0 str5" cx="1296" cy="490" r="4"/>
  <circle class="fil0 str5" cx="1336" cy="502" r="4"/>
  <circle class="fil0 str5" cx="1172" cy="536" r="4"/>
  <circle class="fil0 str5" cx="1166" cy="570" r="5"/>
   <path class="fil0" d="m1378 868c23-72 12-37 32-105-16 68-8 33-23 106 0 2-3 4-5 4s-4-3-4-5z"/>
  <path class="fil2" d="m1383 869c3-28 26-86 27-105"/>
   <path class="fil0" d="m1399 879c30-72 18-36 38-106-17 70-8 34-30 109-1 2-3 4-6 3-2-1-4-3-3-6z"/>
  <path class="fil2" d="m1403 880c9-27 34-88 34-107"/>
   <path class="fil0" d="m1402 826c12-17 16-34 19-54-2 26-7 35-11 58-1 2-4 3-6 2s-3-4-2-6z"/>
  <path class="fil2" d="m1407 828s16-40 15-56"/>
   <path class="fil0" d="m1407 896c12-28 7-15 16-40-6 26-3 12-7 43-1 2-3 4-6 3-2-1-4-3-3-6z"/>
  <path class="fil2" d="m1412 898c4-15 8-34 11-42"/>
   <path class="fil0" d="m1431 835c8-12 4-5 11-21-3 17-3 9-3 23-1 2-3 4-6 3-2-1-4-3-3-6z"/>
  <path class="fil2" d="m1435 836s4-15 7-22"/>
   <path class="fil0" d="m1424 886c19-42 30-66 40-112-7 42-19 73-31 114-1 2-3 4-6 3-2-1-4-3-3-6z"/>
  <path class="fil2" d="m1429 887c6-24 17-40 23-62 6-23 13-37 13-50"/>
   <path class="fil0" d="m1451 861c28-52 43-78 43-139 2 59-13 89-35 143-1 2-4 3-6 2s-3-4-2-6z"/>
  <path class="fil2" d="m1455 864c28-50 45-116 39-141"/>
   <path class="fil0" d="m1267 813l6-17 5-24-2 25v18c0 2-3 4-5 4s-4-3-4-5z"/>
  <path class="fil2" d="m1271 814s6-33 6-42"/>
   <path class="fil0" d="m1290 797c7-16 4-7 9-27l-1 17 1 12c-1 2-3 4-5 4-2-1-4-3-4-5z"/>
  <path class="fil2" d="m1295 798s4-21 4-28"/>
   <path class="fil0" d="m1297 833c12-23 6-10 14-41l-3 27-2 17c-1 2-3 4-6 3-2-1-4-3-3-6z"/>
  <path class="fil2" d="m1301 834s10-29 10-42"/>
   <path class="fil0" d="m1301 893c6-25 7-33 19-56-10 24-12 30-10 56 0 3-2 5-5 5s-5-2-5-5z"/>
  <path class="fil2" d="m1305 893c0-23 8-44 15-56"/>
   <path class="fil0" d="m1316 815c11-27 6-11 13-47l-2 31-2 19c-1 2-3 4-6 3-2-1-4-3-3-6z"/>
  <path class="fil2" d="m1320 816s9-33 8-49"/>
   <path class="fil0" d="m1327 812c18-38 12-19 20-56-5 39-1 18-12 60-1 2-4 3-6 2s-3-4-2-6z"/>
  <path class="fil2" d="m1331 814c9-18 16-46 16-58"/>
   <path class="fil0" d="m1341 827c22-57 15-30 23-82-5 53-1 24-15 85-1 2-4 4-6 3s-4-4-3-6z"/>
  <path class="fil2" d="m1345 828c11-30 20-69 19-83"/>
   <path class="fil0" d="m1348 866c20-47 13-24 21-68l-3 32-9 40c-1 2-4 3-6 2s-3-4-2-6z"/>
  <path class="fil2" d="m1352 868c11-27 16-52 17-70"/>
   <path class="fil0" d="m1368 848l9-19 3-16-1 17-3 21c-1 2-3 4-6 3-2-1-4-3-3-6z"/>
  <path class="fil2" d="m1373 850c5-16 8-26 8-37"/>
   <path class="fil0" d="m1381 790c8-16 4-6 11-32-2 27-2 15-2 34-1 2-3 4-6 3-2-1-4-3-3-6z"/>
  <path class="fil2" d="m1386 792s4-16 6-33"/>
   <path class="fil0" d="m1367 781c12-19 14-37 16-59 0 30-4 36-7 62-1 2-3 4-6 3-2-1-4-3-3-6z"/>
  <path class="fil2" d="m1371 783s14-39 11-61"/>
   <path class="fil0" d="m1398 746c10-24 5-9 9-45 1 37 1 21 0 48-1 2-3 4-6 3-2-1-4-3-3-6z"/>
  <path class="fil2" d="m1403 747s7-24 4-47"/>
   <path class="fil0" d="m1406 691c-2-59 2-31-11-84l12 38 8 46c0 3-2 4-5 4s-4-2-4-5z"/>
  <path class="fil2" d="m1410 692c1-23-9-72-15-84"/>
   <path class="fil0" d="m1422 706c-5-75 2-38-21-110 27 71 16 35 30 110 0 3-2 5-5 5s-5-2-5-5z"/>
  <path class="fil2" d="m1427 706c0-28-11-85-26-110"/>
   <path class="fil0" d="m1442 695c-4-43-5-63-27-100 24 36 25 57 36 99 0 2-1 5-4 5-2 0-5-1-5-4z"/>
  <path class="fil2" d="m1447 695c-5-35-15-82-32-100"/>
   <path class="fil0" d="m1463 685c-6-47-8-62-39-99 33 36 34 51 48 97 0 2-1 5-4 5-2 0-5-1-5-4z"/>
  <path class="fil2" d="m1468 684c-7-42-21-79-44-98"/>
   <path class="fil0" d="m1478 680c-7-47-15-63-43-100 33 39 36 51 52 98 0 2-1 5-4 5-2 0-5-1-5-4z"/>
  <path class="fil2" d="m1482 680c-4-21-21-74-48-99"/>
   <path class="fil0" d="m1421 759l5-13 4-25v40c-1 2-3 4-5 3s-4-3-3-5z"/>
  <path class="fil2" d="m1425 760s5-23 4-39"/>
   <path class="fil0" d="m1438 749c7-23 4-10 6-40l2 26 1 16c0 2-3 4-5 4s-4-3-4-5z"/>
  <path class="fil2" d="m1442 750s4-27 1-41"/>
   <path class="fil0" d="m1448 773l6-22 3-41c0 49 1 28 0 64 0 2-3 4-5 4s-4-3-4-5z"/>
  <path class="fil2" d="m1452 774s6-38 4-64"/>
   <path class="fil0" d="m1471 753l4-10 2-34c3 38 3 23 3 46-1 2-3 4-6 3-2-1-4-3-3-6z"/>
  <path class="fil2" d="m1475 754s4-15 1-45"/>
   <path class="fil0" d="m1276 902c7-28 13-35 18-66-2 27-10 43-9 64 0 2-1 5-4 5-2 0-5-1-5-4z"/>
  <path class="fil2" d="m1280 901c-2-15 14-39 13-65"/>
   <path class="fil0" d="m1303 1099c-26-71-22-103-20-178 0 71-4 109 28 173 1 2 1 5-1 6s-5 1-6-1z"/>
  <path class="fil2" d="m1306 1096c-21-32-28-104-24-175"/>
   <path class="fil0" d="m1292 1004c2-26 1-10 3-50 2 40-1 24 6 49 0 2-1 5-4 5-2 0-5-1-5-4z"/>
  <path class="fil2" d="m1296 1004s-3-21-1-49"/>
   <path class="fil0" d="m1314 926c5-25 13-43 18-67-4 28-10 37-9 67 0 3-2 5-4 5-3 0-5-2-5-4z"/>
  <path class="fil2" d="m1318 926c-1-20 13-50 13-67"/>
   <path class="fil0" d="m1324 1066c-14-52-14-69-10-121-2 51-3 70 18 117 1 2 0 5-2 6s-5 0-6-2z"/>
  <path class="fil2" d="m1328 1064c-16-30-17-89-14-119"/>
   <path class="fil0" d="m1353 1091c-11-17-10-10-18-33 4 9 11 24 23 25 2 1 3 4 2 6s-4 3-6 2z"/>
  <path class="fil2" d="m1356 1087s-15-9-20-29"/>
   <path class="fil0" d="m1362 1055c-15-53-13-74-5-129-5 50-8 77 13 124 1 2 1 5-2 6-2 1-5 1-6-2z"/>
  <path class="fil2" d="m1366 1053c-13-22-18-85-9-126"/>
   <path class="fil0" d="m1334 1044c-6-44-6-59 1-102-5 43-5 58 8 100 1 2 0 5-3 6-2 1-5 0-6-3z"/>
  <path class="fil2" d="m1339 1042c-10-30-9-76-4-101"/>
   <path class="fil0" d="m1343 924c5-19 9-30 15-48-5 22-9 25-6 48 0 3-2 5-4 5-3 0-5-2-5-4z"/>
  <path class="fil2" d="m1348 924c-1-18 8-36 11-48"/>
   <path class="fil0" d="m1371 1005l2-30 4-36c-2 46-3 24 3 65 0 3-2 5-4 5-3 0-5-2-5-4z"/>
  <path class="fil2" d="m1375 1005c-1-19-3-38 1-66"/>
   <path class="fil0" d="m1389 980c5-39 2-17 10-64-5 46-5 25-1 64 0 3-2 5-5 5s-5-2-5-5z"/>
  <path class="fil2" d="m1393 980c0-3-1-45 6-64"/>
   <path class="fil0" d="m1414 945l5-15 6-23c-3 29-3 16-1 40 0 3-2 4-5 4s-4-2-4-5z"/>
  <path class="fil2" d="m1418 946s3-28 6-39"/>
   <path class="fil0" d="m1365 924l5-10 8-21c-5 26-4 15-4 33-1 2-3 4-6 3-2-1-4-3-3-6z"/>
  <path class="fil2" d="m1369 925s4-17 9-32"/>
   <path class="fil0" d="m1311 1145c-22-20-30-27-38-56 10 28 17 34 42 48 2 1 3 4 2 6s-4 3-6 2z"/>
  <path class="fil2" d="m1313 1141c-23-13-38-39-40-52"/>
   <path class="fil0" d="m1337 1115c-19-19-30-30-34-57 5 25 16 36 38 49 2 1 3 4 1 6-1 2-4 3-6 1z"/>
  <path class="fil2" d="m1339 1111c-19-12-34-33-36-53"/>
   <path class="fil0" d="m1286 1158c-24-22-35-28-39-59 6 30 16 36 44 51 2 1 3 4 1 6-1 2-4 3-6 1z"/>
  <path class="fil2" d="m1288 1154c-27-18-39-30-41-55"/>
   <path class="fil0" d="m1211 1144c-10-42-11-60-7-103-2 41-2 61 15 99 1 2 0 5-2 6s-5 0-6-2z"/>
  <path class="fil2" d="m1215 1142c-11-20-15-74-11-101"/>
   <path class="fil0" d="m1231 1126c-10-41-11-58-9-100 0 40 0 59 17 96 1 2 0 5-2 6s-5 0-6-2z"/>
  <path class="fil2" d="m1235 1124c-11-21-16-74-13-98"/>
   <path class="fil0" d="m1258 1082c-10-48-7-57-7-103 2 48-3 53 15 100 1 2 0 5-2 6s-5 0-6-2z"/>
  <path class="fil2" d="m1262 1080c-16-37-9-75-11-102"/>
   <path class="fil0" d="m1264 1035v-42l1-38 1 38 6 41c0 2-1 5-4 5-2 0-5-1-5-4z"/>
  <path class="fil2" d="m1269 1034c-3-18-4-66-3-79"/>
   <path class="fil0" d="m1290 941c3-35 1-14 6-62 0 48-3 27 3 61 0 3-2 5-4 5-3 0-5-2-5-4z"/>
  <path class="fil2" d="m1294 940s-3-36 1-62"/>
   <path class="fil0" d="m1274 841l6-7 7-17-3 18-1 10c-1 2-4 3-6 2s-3-4-2-6z"/>
  <path class="fil2" d="m1278 843s7-15 9-26"/>
   <path class="fil0" d="m1380 929c6-21 3-9 9-36-2 27-3 15 0 36 0 3-2 4-5 4s-4-2-4-5z"/>
  <path class="fil2" d="m1385 930s1-23 4-36"/>
  <path class="fil0" d="m980 1321c-12-5-25-21-29-36s-15-9-9 4 13 26 38 32z"/>
  <path class="fil0" d="m1e3 1292c-11-5-23-20-27-33s-13-9-8 4c5 12 12 24 35 30z"/>
  <path class="fil0" d="m1019 1262c-10-4-21-18-24-31-3-12-12-8-7 3s11 22 31 28z"/>
  <path class="fil0" d="m1038 1232c-9-4-19-17-21-28-3-11-11-7-7 3s10 20 28 25z"/>
  <path class="fil0" d="m1057 1202c-8-4-16-15-19-25-2-10-9-7-6 3 4 9 9 18 25 23z"/>
  <path class="fil0" d="m1076 1172c-7-3-14-14-16-23s-8-6-5 2 8 16 21 20z"/>
  <path class="fil0" d="m1096 1142c-6-3-12-12-14-20s-7-5-4 2 6 15 18 18z"/>
  <path class="fil0" d="m1116 1113c-5-2-10-11-12-18s-6-5-4 2c2 6 5 13 16 16z"/>
  <path class="fil0" d="m997 1372c-12-5-26-21-30-35s-15-9-9 4 14 25 39 31z"/>
  <path class="fil0" d="m1016 1338c-11-4-24-19-28-32s-14-8-8 4 13 24 36 29z"/>
  <path class="fil0" d="m1033 1305c-10-4-22-18-25-30-4-12-12-8-7 3s12 22 32 26z"/>
  <path class="fil0" d="m1050 1271c-9-4-19-16-22-27s-11-7-6 3 10 20 29 24z"/>
  <path class="fil0" d="m1068 1238c-8-3-17-15-20-25s-10-6-6 3 9 18 25 22z"/>
  <path class="fil0" d="m1104 1171c-6-3-13-12-15-20s-7-5-4 2 7 14 19 17z"/>
  <path class="fil0" d="m1123 1137c-5-2-11-10-12-17-2-7-6-4-4 2 3 6 6 12 16 15z"/>
  <path class="fil0" d="m1059 1414c-13-1-31-12-39-24s-17-4-7 6c10 11 21 20 46 18z"/>
  <path class="fil0" d="m1073 1377c-12-1-29-11-36-23-8-12-16-4-7 6s19 19 43 17z"/>
  <path class="fil0" d="m1084 1341c-11-1-26-10-33-21s-14-4-6 6c8 9 17 17 39 15z"/>
  <path class="fil0" d="m1096 1304c-10-1-23-9-29-19s-12-3-5 5 16 16 34 14z"/>
  <path class="fil0" d="m1121 1231c-7-1-18-8-22-16-5-8-10-3-4 4s12 13 26 11z"/>
  <path class="fil0" d="m1134 1195c-6 0-15-7-19-14s-8-2-3 4 10 11 23 10z"/>
  <path class="fil0" d="m1140 1441c-15 3-39-2-52-12-14-9-20 1-6 8s30 13 58 3z"/>
  <path class="fil0" d="m1148 1402c-14 3-36-2-48-11-13-9-19 1-5 8 13 7 28 12 54 3z"/>
  <path class="fil0" d="m1152 1363c-12 3-32-2-43-10s-17 1-5 7 25 11 48 3z"/>
  <path class="fil0" d="m1156 1325c-11 2-28-2-39-9-10-7-15 1-4 6 11 6 22 10 43 3z"/>
  <path class="fil0" d="m1161 1286c-10 2-25-2-34-8-9-7-13 1-4 6s20 9 38 2z"/>
  <path class="fil0" d="m1167 1248c-8 2-22-1-30-7s-11 1-3 5c8 5 17 8 33 2z"/>
  <path class="fil0" d="m1174 1209c-7 2-19-1-25-7-7-5-10 1-3 5s15 7 28 2z"/>
  <path class="fil0" d="m1181 1171c-6 1-16-1-21-6-6-5-8 0-2 4s12 6 24 2z"/>
  <path class="fil0" d="m1215 1446c-14 6-38 6-53-1-15-6-20 5-4 9s32 7 57-8z"/>
  <path class="fil0" d="m1218 1407c-13 6-35 5-50-1-14-6-18 5-4 9 15 4 30 6 53-8z"/>
  <path class="fil0" d="m1214 1368c-11 5-32 5-44-1-13-6-16 4-3 8s27 6 48-7z"/>
  <path class="fil0" d="m1212 1330c-10 5-28 4-39-1s-14 4-3 7c12 3 24 5 42-7z"/>
  <path class="fil0" d="m1210 1291c-9 4-25 4-35-1s-13 4-3 7 21 5 37-6z"/>
  <path class="fil0" d="m1210 1252c-8 4-22 4-30-1-9-4-11 3-2 6s18 4 33-5z"/>
  <path class="fil0" d="m1210 1213c-7 3-19 3-26-1s-10 3-2 5 16 4 28-5z"/>
  <path class="fil0" d="m1212 1174c-6 3-16 3-22 0s-8 2-2 5c6 2 13 3 24-4z"/>
  <path class="fil0" d="m1279 1438c-11 8-32 12-46 9s-16 8-2 9 29 0 48-17z"/>
  <path class="fil0" d="m1277 1400c-10 7-30 11-43 8s-15 7-2 8 27 0 44-16z"/>
  <path class="fil0" d="m1267 1361c-9 7-27 10-38 8-12-2-13 7-1 7 12 1 24 0 40-15z"/>
  <path class="fil0" d="m1259 1323c-8 6-24 9-34 7-11-2-12 6-1 7s21 0 35-14z"/>
  <path class="fil0" d="m1252 1285c-7 5-21 8-30 6s-10 6-1 6c9 1 19 0 31-12z"/>
  <path class="fil0" d="m1246 1246c-6 5-18 7-26 6-8-2-9 5-1 6s16 0 27-11z"/>
  <path class="fil0" d="m1241 1208c-5 4-16 7-22 5-7-2-8 4-1 5 7 0 14 0 23-10z"/>
  <path class="fil0" d="m1238 1170c-4 4-13 6-19 4-6-1-7 4-1 4s12 0 20-9z"/>
  <path class="fil0" d="m1343 1406c-8 10-28 20-42 21-15 1-13 12 1 9s28-8 42-29z"/>
  <path class="fil0" d="m1336 1370c-8 9-26 18-39 19s-12 11 1 8 26-7 39-27z"/>
  <path class="fil0" d="m1321 1334c-7 9-23 17-35 18s-11 10 1 8c12-3 23-7 35-25z"/>
  <path class="fil0" d="m1306 1298c-6 8-21 15-31 16-11 1-10 9 0 7s21-6 31-23z"/>
  <path class="fil0" d="m1293 1262c-6 7-18 14-28 15-9 1-9 8 0 6s18-5 27-21z"/>
  <path class="fil0" d="m1282 1226c-5 6-16 12-24 13s-8 7 0 6c8-2 16-5 24-19z"/>
  <path class="fil0" d="m1273 1190c-4 6-14 11-21 12s-6 7 0 5c7-2 14-4 20-17z"/>
  <path class="fil0" d="m1265 1154c-3 5-11 10-17 10s-5 6 0 4c6-1 11-4 17-14z"/>
  <path class="fil0" d="m1399 1368c-7 10-23 21-36 24s-11 12 2 8c12-4 25-10 34-31z"/>
  <path class="fil0" d="m1388 1335c-6 9-21 19-33 22-12 2-10 11 1 7s23-9 32-29z"/>
  <path class="fil0" d="m1367 1302c-5 9-19 18-30 20s-9 10 1 7c10-4 20-9 29-27z"/>
  <path class="fil0" d="m1348 1269c-5 8-17 16-27 18s-8 10 1 6c9-3 18-8 25-25z"/>
  <path class="fil0" d="m1330 1235c-4 7-15 15-24 17s-7 9 1 6 16-7 22-22z"/>
  <path class="fil0" d="m1314 1202c-4 7-13 13-20 15s-6 8 1 5 14-7 20-20z"/>
  <path class="fil0" d="m1300 1169c-3 6-11 12-18 13-6 1-5 7 1 4 6-2 12-6 17-18z"/>
  <path class="fil0" d="m1430 1332c-4 10-15 22-24 25-9 4-7 12 2 7 8-5 17-12 22-32z"/>
  <path class="fil0" d="m1417 1301c-3 9-13 20-22 23-8 4-6 11 2 6s15-11 20-30z"/>
  <path class="fil0" d="m1393 1271c-3 9-12 18-20 22-8 3-5 10 2 6 7-5 14-10 18-28z"/>
  <path class="fil0" d="m1371 1240c-3 8-11 17-17 20-7 3-5 10 1 5 6-4 12-9 16-25z"/>
  <path class="fil0" d="m1350 1210c-2 7-9 15-15 18s-4 9 1 5c6-4 11-9 14-23z"/>
  <path class="fil0" d="m1332 1179c-2 6-8 14-13 16s-4 8 1 4c5-3 9-8 12-21z"/>
  <path class="fil0" d="m816 1186c-230-210-364-821 175-1013-69 15-137 37-201 65-272 215-320 688 26 948z"/>
  <path class="fil0" d="m1610 1189c230-210 364-821-175-1013 69 15 137 37 201 65 272 215 320 688-26 948z"/>
  <path class="fil0" d="m535 395s-237 458 177 784c-245-293-289-539-65-866-60 37-112 81-112 81z"/>
  <path class="fil0" d="m1890 398s237 458-177 784c245-293 289-539 65-866 60 37 112 81 112 81z"/>
  <circle class="fil0" cx="1092" cy="1478" r="10"/>
  <circle class="fil0" cx="1333" cy="1481" r="10"/>
  <circle class="fil0" cx="1110" cy="1503" r="7"/>
  <circle class="fil0" cx="1315" cy="1506" r="7"/>
  <circle class="fil0" cx="1107" cy="1531" r="5"/>
  <circle class="fil0" cx="1319" cy="1534" r="5"/>
  <circle class="fil0" cx="1081" cy="1521" r="9"/>
  <circle class="fil0" cx="1344" cy="1524" r="9"/>
  <circle class="fil0" cx="1088" cy="1553" r="6"/>
  <circle class="fil0" cx="1337" cy="1556" r="6"/>
  <circle class="fil0" cx="1109" cy="1566" r="8"/>
  <circle class="fil0" cx="1317" cy="1570" r="8"/>
  <circle class="fil0" cx="1092" cy="1576" r="8"/>
  <circle class="fil0" cx="1334" cy="1580" r="8"/>
  <circle class="fil0" cx="1102" cy="1603" r="5"/>
  <circle class="fil0" cx="1324" cy="1606" r="5"/>
  <circle class="fil0" cx="1118" cy="1592" r="6"/>
  <circle class="fil0" cx="1307" cy="1595" r="6"/>
  <circle class="fil0" cx="1115" cy="1626" r="4"/>
  <circle class="fil0" cx="1310" cy="1629" r="4"/>
  <circle class="fil0" cx="1130" cy="1620" r="4"/>
  <circle class="fil0" cx="1296" cy="1623" r="4"/>
  <circle class="fil0" cx="1141" cy="1631" r="6"/>
  <circle class="fil0" cx="1285" cy="1634" r="6"/>
  <circle class="fil0" cx="1162" cy="1615" r="8"/>
  <circle class="fil0" cx="1237" cy="1603" r="8"/>
  <circle class="fil0" cx="1149" cy="1596" r="6"/>
  <circle class="fil0" cx="1277" cy="1600" r="6"/>
  <circle class="fil0" cx="1157" cy="1576" r="7"/>
  <circle class="fil0" cx="1259" cy="1563" r="7"/>
  <circle class="fil0" cx="1175" cy="1599" r="4"/>
  <circle class="fil0" cx="1251" cy="1602" r="4"/>
  <circle class="fil0" cx="1180" cy="1580" r="5"/>
  <circle class="fil0" cx="1246" cy="1583" r="5"/>
  <circle class="fil0" cx="1161" cy="1553" r="7"/>
  <circle class="fil0" cx="1234" cy="1564" r="7"/>
  <circle class="fil0" cx="1184" cy="1544" r="6"/>
  <circle class="fil0" cx="1242" cy="1547" r="6"/>
  <circle class="fil0" cx="1191" cy="1513" r="10"/>
  <circle class="fil0" cx="1235" cy="1516" r="10"/>
  <circle class="fil0" cx="1170" cy="1523" r="8"/>
  <circle class="fil0" cx="1264" cy="1526" r="8"/>
  <circle class="fil0" cx="1170" cy="1496" r="6"/>
  <circle class="fil0" cx="1262" cy="1500" r="6"/>
  <path class="fil2 str6" d="m667 1134c-132 111-48 314 11 352"/>
  <path class="fil2 str6" d="m1759 1137c132 111 48 314-11 352"/>
  <path class="fil2 str6" d="m796 1778c-177-80-154-234-118-292"/>
  <path class="fil2 str6" d="m1630 1782c177-80 154-234 118-292"/>
  <circle class="fil0" cx="987" cy="1428" r="8"/>
  <circle class="fil0" cx="1439" cy="1432" r="8"/>
  <circle class="fil0" cx="975" cy="1457" r="5"/>
  <circle class="fil0" cx="1450" cy="1460" r="5"/>
  <circle class="fil0" cx="994" cy="1468" r="6"/>
  <circle class="fil0" cx="1431" cy="1471" r="6"/>
  <circle class="fil0" cx="1008" cy="1445" r="4"/>
  <circle class="fil0" cx="1418" cy="1448" r="4"/>
  <circle class="fil0" cx="985" cy="1495" r="8"/>
  <circle class="fil0" cx="1441" cy="1498" r="8"/>
  <circle class="fil0" cx="967" cy="1522" r="6"/>
  <circle class="fil0" cx="1459" cy="1525" r="6"/>
  <circle class="fil0" cx="970" cy="1543" r="4"/>
  <circle class="fil0" cx="1456" cy="1546" r="4"/>
  <circle class="fil0" cx="991" cy="1543" r="4"/>
  <circle class="fil0" cx="1435" cy="1546" r="4"/>
  <circle class="fil0" cx="977" cy="1569" r="4"/>
  <circle class="fil0" cx="1449" cy="1572" r="4"/>
  <circle class="fil0" cx="984" cy="1590" r="4"/>
  <circle class="fil0" cx="1441" cy="1594" r="4"/>
  <circle class="fil0" cx="1013" cy="1587" r="8"/>
  <circle class="fil0" cx="1413" cy="1590" r="8"/>
  <circle class="fil0" cx="1029" cy="1573" r="4"/>
  <circle class="fil0" cx="1397" cy="1576" r="4"/>
  <circle class="fil0" cx="1025" cy="1549" r="3"/>
  <circle class="fil0" cx="1400" cy="1552" r="3"/>
  <circle class="fil0" cx="1045" cy="1541" r="5"/>
  <circle class="fil0" cx="1380" cy="1544" r="5"/>
  <circle class="fil0" cx="1031" cy="1519" r="9"/>
  <circle class="fil0" cx="1394" cy="1523" r="9"/>
  <circle class="fil0" cx="1054" cy="1514" r="6"/>
  <circle class="fil0" cx="1371" cy="1517" r="6"/>
  <circle class="fil0" cx="1067" cy="1483" r="5"/>
  <circle class="fil0" cx="1359" cy="1486" r="5"/>
  <circle class="fil0" cx="1045" cy="1490" r="6"/>
  <circle class="fil0" cx="1381" cy="1494" r="6"/>
  <circle class="fil0" cx="1038" cy="1463" r="5"/>
  <circle class="fil0" cx="1387" cy="1466" r="5"/>
  <circle class="fil0" cx="1059" cy="1463" r="8"/>
  <circle class="fil0" cx="1367" cy="1466" r="8"/>
  <circle class="fil0" cx="878" cy="1482" r="8"/>
  <circle class="fil0" transform="matrix(-.79092 .20635 .25245 .96761 1520.6 1467.9)" r="8"/>
  <circle class="fil0" cx="901" cy="1516" r="11"/>
  <circle class="fil0" cx="1515" cy="1502" r="11"/>
  <circle class="fil0" cx="927" cy="1477" r="5"/>
  <circle class="fil0" transform="matrix(-.79092 .20635 .25245 .96761 1481 1472.8)" r="5"/>
  <circle class="fil0" cx="927" cy="1500" r="8"/>
  <circle class="fil0" transform="matrix(-.79092 .20635 .25245 .96761 1486.8 1495.2)" r="8"/>
  <circle class="fil0" cx="884" cy="1438" r="5"/>
  <circle class="fil0" transform="matrix(-.79092 .20635 .25245 .96761 1504.7 1426.6)" r="5"/>
  <circle class="fil0" cx="881" cy="1458" r="7"/>
  <circle class="fil0" transform="matrix(-.79092 .20635 .25245 .96761 1512.1 1444.8)" r="7"/>
  <circle class="fil0" cx="877" cy="1404" r="8"/>
  <circle class="fil0" transform="matrix(-.79092 .20635 .25245 .96761 1501.9 1392)" r="8"/>
  <circle class="fil0" cx="891" cy="1361" r="8"/>
  <circle class="fil0" transform="matrix(-.79092 .20635 .25245 .96761 1479.9 1353.7)" r="8"/>
  <circle class="fil0" cx="898" cy="1397" r="8"/>
  <circle class="fil0" transform="matrix(-.79092 .20635 .25245 .96761 1483.1 1389.8)" r="8"/>
  <circle class="fil0" cx="900" cy="1430" r="8"/>
  <circle class="fil0" transform="matrix(-.79092 .20635 .25245 .96761 1489.7 1421.8)" r="8"/>
  <circle class="fil0" cx="930" cy="1445" r="8"/>
  <circle class="fil0" transform="matrix(-.79092 .20635 .25245 .96761 1470.4 1443.2)" r="8"/>
  <circle class="fil0" cx="952" cy="1423" r="6"/>
  <circle class="fil0" transform="matrix(-.79092 .20635 .25245 .96761 1447.2 1425.9)" r="6"/>
  <circle class="fil0" cx="950" cy="1398" r="7"/>
  <circle class="fil0" transform="matrix(-.79092 .20635 .25245 .96761 1442.1 1401.1)" r="7"/>
  <circle class="fil0" cx="936" cy="1421" r="6"/>
  <circle class="fil0" transform="matrix(-.79092 .20635 .25245 .96761 1459.6 1420.5)" r="6"/>
  <circle class="fil0" cx="847" cy="1499" r="5"/>
  <circle class="fil0" cx="1578" cy="1502" r="5"/>
  <circle class="fil0" cx="855" cy="1524" r="7"/>
  <circle class="fil0" cx="1571" cy="1528" r="7"/>
  <circle class="fil0" cx="842" cy="1543" r="10"/>
  <circle class="fil0" cx="1584" cy="1546" r="10"/>
  <circle class="fil0" cx="847" cy="1569" r="5"/>
  <circle class="fil0" cx="1579" cy="1572" r="5"/>
  <circle class="fil0" cx="840" cy="1587" r="7"/>
  <circle class="fil0" cx="1586" cy="1590" r="7"/>
  <circle class="fil0" cx="845" cy="1609" r="10"/>
  <circle class="fil0" cx="1581" cy="1612" r="10"/>
  <circle class="fil0" cx="872" cy="1584" r="7"/>
  <circle class="fil0" cx="1553" cy="1587" r="7"/>
  <circle class="fil0" cx="874" cy="1621" r="7"/>
  <circle class="fil0" cx="1551" cy="1625" r="7"/>
  <circle class="fil0" cx="854" cy="1634" r="9"/>
  <circle class="fil0" cx="1572" cy="1637" r="9"/>
  <circle class="fil0" cx="889" cy="1595" r="6"/>
  <circle class="fil0" cx="1536" cy="1598" r="6"/>
  <circle class="fil0" cx="889" cy="1557" r="9"/>
  <circle class="fil0" cx="1537" cy="1560" r="9"/>
  <circle class="fil0" cx="933" cy="1547" r="3"/>
  <circle class="fil0" cx="1493" cy="1550" r="3"/>
  <circle class="fil0" cx="924" cy="1574" r="9"/>
  <circle class="fil0" cx="1502" cy="1577" r="9"/>
  <circle class="fil0" cx="941" cy="1591" r="7"/>
  <circle class="fil0" cx="1484" cy="1595" r="7"/>
  <circle class="fil0" cx="921" cy="1607" r="8"/>
  <circle class="fil0" cx="1504" cy="1610" r="8"/>
  <circle class="fil0" cx="931" cy="1635" r="7"/>
  <circle class="fil0" cx="1495" cy="1638" r="7"/>
  <circle class="fil0" cx="921" cy="1656" r="9"/>
  <circle class="fil0" cx="1505" cy="1659" r="9"/>
  <circle class="fil0" cx="925" cy="1683" r="5"/>
  <circle class="fil0" cx="1501" cy="1687" r="5"/>
  <circle class="fil0" cx="940" cy="1709" r="5"/>
  <circle class="fil0" cx="1486" cy="1712" r="5"/>
  <circle class="fil0" cx="961" cy="1695" r="4"/>
  <circle class="fil0" cx="1465" cy="1698" r="4"/>
  <circle class="fil0" cx="934" cy="1693" r="5"/>
  <circle class="fil0" cx="1491" cy="1697" r="5"/>
  <circle class="fil0" cx="962" cy="1670" r="8"/>
  <circle class="fil0" cx="1463" cy="1673" r="8"/>
  <circle class="fil0" cx="980" cy="1662" r="6"/>
  <circle class="fil0" cx="1446" cy="1665" r="6"/>
  <circle class="fil0" cx="988" cy="1633" r="3"/>
  <circle class="fil0" cx="1438" cy="1636" r="3"/>
  <circle class="fil0" cx="968" cy="1632" r="3"/>
  <circle class="fil0" cx="1458" cy="1636" r="3"/>
  <circle class="fil0" cx="970" cy="1610" r="8"/>
  <circle class="fil0" cx="1455" cy="1613" r="8"/>
  <circle class="fil0" cx="939" cy="1532" r="7"/>
  <circle class="fil0" cx="1486" cy="1535" r="7"/>
  <circle class="fil0" cx="1032" cy="1610" r="8"/>
  <circle class="fil0" cx="1394" cy="1614" r="8"/>
  <circle class="fil0" cx="1082" cy="1639" r="8"/>
  <circle class="fil0" cx="1344" cy="1642" r="8"/>
  <circle class="fil0" cx="1117" cy="1476" r="9"/>
  <circle class="fil0" cx="1308" cy="1479" r="9"/>
  <circle class="fil0" cx="1008" cy="1431" r="5"/>
  <circle class="fil0" cx="1418" cy="1434" r="5"/>
  <circle class="fil0" cx="915" cy="1354" r="15"/>
  <circle class="fil0" transform="matrix(-.79092 .20635 .25245 .96761 1459.2 1351.8)" r="15"/>
  <circle class="fil0" cx="1023" cy="1649" r="11"/>
  <circle class="fil0" cx="1402" cy="1652" r="11"/>
  <circle class="fil0" cx="1021" cy="1682" r="7"/>
  <circle class="fil0" cx="1405" cy="1685" r="7"/>
  <circle class="fil0" cx="1010" cy="1700" r="8"/>
  <circle class="fil0" cx="1415" cy="1703" r="8"/>
  <circle class="fil0" cx="1029" cy="1715" r="11"/>
  <circle class="fil0" cx="1396" cy="1718" r="11"/>
  <circle class="fil0" cx="1043" cy="1743" r="9"/>
  <circle class="fil0" cx="1383" cy="1746" r="9"/>
  <circle class="fil0" cx="1067" cy="1741" r="4"/>
  <circle class="fil0" cx="1358" cy="1744" r="4"/>
  <circle class="fil0" cx="1082" cy="1709" r="8"/>
  <circle class="fil0" cx="1344" cy="1712" r="8"/>
  <circle class="fil0" cx="1062" cy="1708" r="5"/>
  <circle class="fil0" cx="1363" cy="1712" r="5"/>
  <circle class="fil0" cx="1072" cy="1676" r="5"/>
  <circle class="fil0" cx="1353" cy="1680" r="5"/>
  <circle class="fil0" cx="1095" cy="1681" r="7"/>
  <circle class="fil0" cx="1331" cy="1684" r="7"/>
  <circle class="fil0" cx="1088" cy="1657" r="5"/>
  <circle class="fil0" cx="1338" cy="1661" r="5"/>
  <circle class="fil0" cx="1134" cy="1667" r="6"/>
  <circle class="fil0" cx="1292" cy="1671" r="6"/>
  <circle class="fil0" cx="1159" cy="1662" r="8"/>
  <circle class="fil0" cx="1266" cy="1665" r="8"/>
  <circle class="fil0" cx="1146" cy="1685" r="4"/>
  <circle class="fil0" cx="1280" cy="1688" r="4"/>
  <circle class="fil0" cx="1132" cy="1695" r="6"/>
  <circle class="fil0" cx="1294" cy="1698" r="6"/>
  <circle class="fil0" cx="1153" cy="1703" r="8"/>
  <circle class="fil0" cx="1273" cy="1706" r="8"/>
  <circle class="fil0" cx="1135" cy="1717" r="8"/>
  <circle class="fil0" cx="1291" cy="1720" r="8"/>
  <circle class="fil0" cx="1100" cy="1755" r="5"/>
  <circle class="fil0" cx="1325" cy="1758" r="5"/>
  <circle class="fil0" cx="1087" cy="1766" r="8"/>
  <circle class="fil0" cx="1339" cy="1769" r="8"/>
  <circle class="fil0" cx="1098" cy="1782" r="7"/>
  <circle class="fil0" cx="1328" cy="1785" r="7"/>
  <circle class="fil0" cx="1115" cy="1787" r="4"/>
  <circle class="fil0" cx="1311" cy="1791" r="4"/>
  <circle class="fil0" cx="1126" cy="1763" r="6"/>
  <circle class="fil0" cx="1300" cy="1766" r="6"/>
  <circle class="fil0" cx="1149" cy="1751" r="6"/>
  <circle class="fil0" cx="1277" cy="1754" r="6"/>
  <circle class="fil0" cx="1130" cy="1737" r="7"/>
  <circle class="fil0" cx="1295" cy="1740" r="7"/>
  <circle class="fil0" cx="857" cy="1675" r="8"/>
  <circle class="fil0" cx="1569" cy="1678" r="8"/>
  <circle class="fil0" cx="876" cy="1673" r="8"/>
  <circle class="fil0" cx="1550" cy="1677" r="8"/>
  <circle class="fil0" cx="860" cy="1701" r="8"/>
  <circle class="fil0" cx="1565" cy="1704" r="8"/>
  <circle class="fil0" cx="857" cy="1725" r="8"/>
  <circle class="fil0" cx="1568" cy="1728" r="8"/>
  <circle class="fil0" cx="891" cy="1722" r="7"/>
  <circle class="fil0" cx="1535" cy="1725" r="7"/>
  <circle class="fil0" cx="900" cy="1752" r="4"/>
  <circle class="fil0" cx="1525" cy="1755" r="4"/>
  <circle class="fil0" cx="884" cy="1752" r="5"/>
  <circle class="fil0" cx="1542" cy="1755" r="5"/>
  <circle class="fil0" cx="890" cy="1781" r="7"/>
  <circle class="fil0" cx="1536" cy="1784" r="7"/>
  <circle class="fil0" cx="870" cy="1790" r="7"/>
  <circle class="fil0" cx="1556" cy="1793" r="7"/>
  <circle class="fil0" cx="856" cy="1756" r="6"/>
  <circle class="fil0" cx="1570" cy="1759" r="6"/>
  <circle class="fil0" cx="931" cy="1747" r="9"/>
  <circle class="fil0" cx="1495" cy="1750" r="9"/>
  <circle class="fil0" cx="936" cy="1771" r="9"/>
  <circle class="fil0" cx="1490" cy="1774" r="9"/>
  <circle class="fil0" cx="954" cy="1744" r="6"/>
  <circle class="fil0" cx="1472" cy="1747" r="6"/>
  <circle class="fil0" cx="990" cy="1701" r="10"/>
  <circle class="fil0" cx="1435" cy="1704" r="10"/>
  <circle class="fil0" cx="991" cy="1736" r="4"/>
  <circle class="fil0" cx="1435" cy="1739" r="4"/>
  <circle class="fil0" cx="985" cy="1758" r="7"/>
  <circle class="fil0" cx="1441" cy="1761" r="7"/>
  <circle class="fil0" cx="1007" cy="1759" r="8"/>
  <circle class="fil0" cx="1419" cy="1762" r="8"/>
  <circle class="fil0" cx="993" cy="1787" r="6"/>
  <circle class="fil0" cx="1432" cy="1790" r="6"/>
  <circle class="fil0" cx="981" cy="1804" r="13"/>
  <circle class="fil0" cx="1444" cy="1807" r="13"/>
  <circle class="fil0" cx="983" cy="1832" r="6"/>
  <circle class="fil0" cx="1443" cy="1835" r="6"/>
  <circle class="fil0" cx="964" cy="1859" r="8"/>
  <circle class="fil0" cx="1461" cy="1862" r="8"/>
  <circle class="fil0" cx="941" cy="1855" r="4"/>
  <circle class="fil0" cx="1484" cy="1858" r="4"/>
  <circle class="fil0" cx="947" cy="1833" r="7"/>
  <circle class="fil0" cx="1479" cy="1836" r="7"/>
  <circle class="fil0" cx="932" cy="1804" r="10"/>
  <circle class="fil0" cx="1493" cy="1808" r="10"/>
  <circle class="fil0" cx="951" cy="1784" r="7"/>
  <circle class="fil0" cx="1475" cy="1787" r="7"/>
  <circle class="fil0" cx="1032" cy="1785" r="8"/>
  <circle class="fil0" cx="1393" cy="1788" r="8"/>
  <circle class="fil0" cx="1026" cy="1810" r="7"/>
  <circle class="fil0" cx="1400" cy="1813" r="7"/>
  <circle class="fil0" cx="1045" cy="1803" r="7"/>
  <circle class="fil0" cx="1380" cy="1806" r="7"/>
  <circle class="fil0" cx="1074" cy="1814" r="5"/>
  <circle class="fil0" cx="1352" cy="1817" r="5"/>
  <circle class="fil0" cx="1096" cy="1820" r="9"/>
  <circle class="fil0" cx="1329" cy="1823" r="9"/>
  <circle class="fil0" cx="1090" cy="1847" r="7"/>
  <circle class="fil0" cx="1335" cy="1850" r="7"/>
  <circle class="fil0" cx="1082" cy="1868" r="8"/>
  <circle class="fil0" cx="1343" cy="1871" r="8"/>
  <circle class="fil0" cx="1045" cy="1862" r="9"/>
  <circle class="fil0" cx="1381" cy="1865" r="9"/>
  <circle class="fil0" cx="1049" cy="1899" r="9"/>
  <circle class="fil0" cx="1377" cy="1902" r="9"/>
  <circle class="fil0" cx="1021" cy="1836" r="8"/>
  <circle class="fil0" cx="1404" cy="1839" r="8"/>
  <circle class="fil0" cx="1080" cy="1900" r="8"/>
  <circle class="fil0" cx="1346" cy="1903" r="8"/>
  <circle class="fil0" cx="1043" cy="1829" r="8"/>
  <circle class="fil0" cx="1383" cy="1833" r="8"/>
  <path class="fil0" d="m729 1749s-34 52-64 78c-31 26 86-65 86-65s-23-13-22-13z"/>
  <path class="fil0" d="m1697 1752s34 52 64 78c31 26-86-65-86-65s23-13 22-13z"/>
  <path class="fil0" d="m672 1688s-33 52-74 67c-41 16 82-32 89-47 7-16-16-20-16-20z"/>
  <path class="fil0" d="m1753 1691s33 52 74 67c41 16-82-32-89-47-7-16 16-20 16-20z"/>
  <path class="fil0" d="m507 1636c37 17 140-22 140-22l-1-18s-93 45-141 39h-1l3 1z"/>
  <path class="fil0" d="m1919 1639c-37 17-140-22-140-22l1-18s93 45 141 39h1l-3 1z"/>
  <polygon class="fil0" points="686 1473 698 1483 692 1496 670 1501 666 1477"/>
  <polygon class="fil0" points="1739 1476 1727 1486 1734 1499 1755 1505 1760 1480"/>
  <path class="fil0" d="m458 1525s113-3 148-19 52-25 52-25l1 32s-136 35-201 12z"/>
  <path class="fil0" d="m1968 1528s-113-3-148-19-52-25-52-25l-1 32s136 35 201 12z"/>
  <path class="fil0" d="m464 1395s38 23 82 23 66-9 66-9l-6-19s-48 26-142 5z"/>
  <path class="fil0" d="m1961 1398s-38 23-82 23-66-9-66-9l6-19s48 26 142 5z"/>
  <path class="fil0" d="m458 1267s41 35 79 44 56 6 56 6v-23s-90-6-135-27z"/>
  <path class="fil0" d="m1968 1270s-41 35-79 44-56 6-56 6v-23s90-6 135-27z"/>
  <path class="fil0" d="m474 1102c28 49 103 108 127 117 24 8 6-17 6-17s-72-25-134-100z"/>
  <path class="fil0" d="m1952 1105c-28 49-103 108-127 117-24 8-6-17-6-17s72-25 134-100z"/>
  <path class="fil2" d="m434 497c-57 135-67 459 198 673"/>
  <path class="fil2" d="m1992 500c57 135 67 459-198 673"/>
  <polygon class="fil0" points="795 1444 804 1447 797 1456 788 1456"/>
  <polygon class="fil0" points="1631 1447 1622 1450 1628 1460 1638 1459"/>
  <polygon class="fil0" points="742 1460 751 1463 745 1473 735 1472"/>
  <polygon class="fil0" points="1684 1463 1675 1466 1681 1476 1691 1475"/>
  <path class="fil2 str7" d="m537 1149s-1-26-9-42"/>
  <path class="fil2 str7" d="m1888 1152s1-26 9-42"/>
  <path class="fil2 str7" d="m562 1167s-4-24-12-38"/>
  <path class="fil2 str7" d="m1864 1170s4-24 12-38"/>
  <path class="fil2 str7" d="m578 1178s-1-17-6-27"/>
  <path class="fil2 str7" d="m1848 1181s1-17 6-27"/>
  <path class="fil2 str7" d="m598 1188s0-14-6-24"/>
  <path class="fil2 str7" d="m1828 1191s0-14 6-24"/>
  <path class="fil2 str7" d="m582 1226s-12 3-26-2"/>
  <path class="fil2 str7" d="m1844 1229s12 3 26-2"/>
  <path class="fil2 str7" d="m565 1206c-3 0-26 2-42-6"/>
  <path class="fil2 str7" d="m1861 1209c3 0 26 2 42-6"/>
  <path class="fil2 str7" d="m537 1186s-30-3-44-12"/>
  <path class="fil2 str7" d="m1889 1190s30-3 44-12"/>
  <path class="fil2 str7" d="m505 1157s-14 5-29-2"/>
  <path class="fil2 str7" d="m1920 1160s14 5 29-2"/>
  <path class="fil2 str7" d="m490 1145s-15-3-26-9"/>
  <path class="fil2 str7" d="m1936 1148s15-3 26-9"/>
  <path class="fil2 str7" d="m574 1286s-8-19-13-26"/>
  <path class="fil2 str7" d="m1852 1289s8-19 13-26"/>
  <path class="fil2 str7" d="m503 1095s8 12 9 26"/>
  <path class="fil2 str7" d="m1923 1098s-8 12-9 26"/>
  <path class="fil2 str7" d="m450 1227s17 21 21 31"/>
  <path class="fil2 str7" d="m1975 1230s-17 21-21 31"/>
  <path class="fil2 str7" d="m473 1232c3 3 21 33 23 41"/>
  <path class="fil2 str7" d="m1953 1236c-3 3-21 33-23 41"/>
  <path class="fil2 str7" d="m494 1239s18 27 23 42"/>
  <path class="fil2 str7" d="m1932 1242s-18 27-23 42"/>
  <path class="fil2 str7" d="m522 1249s15 24 18 34"/>
  <path class="fil2 str7" d="m1904 1252s-15 24-18 34"/>
  <path class="fil2 str7" d="m546 1256s12 21 12 28"/>
  <path class="fil2 str7" d="m1880 1259s-12 21-12 28"/>
  <path class="fil2 str7" d="m460 1281s-21 5-31 4"/>
  <path class="fil2 str7" d="m1965 1284s21 5 31 4"/>
  <path class="fil2 str7" d="m481 1298s-23 5-29 3"/>
  <path class="fil2 str7" d="m1945 1301s23 5 29 3"/>
  <path class="fil2 str7" d="m499 1305s-22 9-29 8"/>
  <path class="fil2 str7" d="m1926 1308s22 9 29 8"/>
  <path class="fil2 str7" d="m525 1313s-16 8-28 8"/>
  <path class="fil2 str7" d="m1901 1317s16 8 28 8"/>
  <path class="fil2 str7" d="m542 1320s-17 11-29 10"/>
  <path class="fil2 str7" d="m1883 1323s17 11 29 10"/>
  <path class="fil2 str7" d="m565 1327s-17 8-25 8"/>
  <path class="fil2 str7" d="m1860 1330s17 8 25 8"/>
  <path class="fil2 str7" d="m463 1384s-24-16-26-21"/>
  <path class="fil2 str7" d="m1963 1387s24-16 26-21"/>
  <path class="fil2 str7" d="m571 1392s-21-12-23-21"/>
  <path class="fil2 str7" d="m1855 1395s21-12 23-21"/>
  <path class="fil2 str7" d="m567 1367s10 18 21 20"/>
  <path class="fil2 str7" d="m1859 1371s-10 18-21 20"/>
  <path class="fil2 str7" d="m521 1366c0 2 17 22 28 27"/>
  <path class="fil2 str7" d="m1905 1369c0 2-17 22-28 27"/>
  <path class="fil2 str7" d="m499 1365s12 22 26 28"/>
  <path class="fil2 str7" d="m1926 1368s-12 22-26 28"/>
  <path class="fil2 str7" d="m477 1364c1 3 6 16 20 23"/>
  <path class="fil2 str7" d="m1949 1367c-1 3-6 16-20 23"/>
  <path class="fil2 str7" d="m424 1384s15 12 21 14"/>
  <path class="fil2 str7" d="m2002 1387s-15 12-21 14"/>
  <path class="fil2 str7" d="m450 1408s-12 6-15 12"/>
  <path class="fil2 str7" d="m1975 1412s12 6 15 12"/>
  <path class="fil2 str7" d="m476 1410s-18 14-32 21"/>
  <path class="fil2 str7" d="m1950 1413s18 14 32 21"/>
  <path class="fil2 str7" d="m498 1416s-17 18-30 20"/>
  <path class="fil2 str7" d="m1928 1419s17 18 30 20"/>
  <path class="fil2 str7" d="m523 1420s-24 17-36 21"/>
  <path class="fil2 str7" d="m1902 1423s24 17 36 21"/>
  <path class="fil2 str7" d="m556 1421s-23 20-39 21"/>
  <path class="fil2 str7" d="m1870 1424s23 20 39 21"/>
  <path class="fil2 str7" d="m574 1423s-27 27-34 27"/>
  <path class="fil2 str7" d="m1851 1426s27 27 34 27"/>
  <path class="fil2 str7" d="m603 1421s-20 23-29 25"/>
  <path class="fil2 str7" d="m1823 1424s20 23 29 25"/>
  <path class="fil2 str7" d="m477 1514s-15-2-19-9"/>
  <path class="fil2 str7" d="m1949 1517s15-2 19-9"/>
  <path class="fil2 str7" d="m521 1517s-27-12-36-22"/>
  <path class="fil2 str7" d="m1905 1520s27-12 36-22"/>
  <path class="fil2 str7" d="m543 1513s-25-13-35-22"/>
  <path class="fil2 str7" d="m1882 1516s25-13 35-22"/>
  <path class="fil2 str7" d="m579 1508s-29-9-36-18"/>
  <path class="fil2 str7" d="m1847 1511s29-9 36-18"/>
  <path class="fil2 str7" d="m609 1497s-19-8-31-16"/>
  <path class="fil2 str7" d="m1817 1500s19-8 31-16"/>
  <path class="fil2 str7" d="m630 1487s-15-6-22-13"/>
  <path class="fil2 str7" d="m1796 1490s15-6 22-13"/>
  <path class="fil2 str7" d="m493 1546s-17 13-30 17"/>
  <path class="fil2 str7" d="m1933 1549s17 13 30 17"/>
  <path class="fil2 str7" d="m530 1544s-23 26-43 31"/>
  <path class="fil2 str7" d="m1895 1547s23 26 43 31"/>
  <path class="fil2 str7" d="m563 1538s-20 27-42 36"/>
  <path class="fil2 str7" d="m1862 1542s20 27 42 36"/>
  <path class="fil2 str7" d="m592 1533s-21 34-43 42"/>
  <path class="fil2 str7" d="m1834 1536s21 34 43 42"/>
  <path class="fil2 str7" d="m619 1528s-5 15-22 24"/>
  <path class="fil2 str7" d="m1807 1532s5 15 22 24"/>
  <path class="fil2 str7" d="m636 1534s-6 12-16 16"/>
  <path class="fil2 str7" d="m1790 1537s6 12 16 16"/>
  <path class="fil2 str7" d="m527 1651s-1 13-21 16"/>
  <path class="fil2 str7" d="m1899 1655s1 13 21 16"/>
  <path class="fil2 str7" d="m560 1650s-9 24-27 32"/>
  <path class="fil2 str7" d="m1866 1653s9 24 27 32"/>
  <path class="fil2 str7" d="m628 1600s-13-1-21-6"/>
  <path class="fil2 str7" d="m1797 1603s13-1 21-6"/>
  <path class="fil2 str7" d="m594 1610s-13-3-17-6"/>
  <path class="fil2 str7" d="m1832 1613s13-3 17-6"/>
  <path class="fil2 str7" d="m594 1638c0 3-18 34-32 46"/>
  <path class="fil2 str7" d="m1832 1641c0 3 18 34 32 46"/>
  <path class="fil2 str7" d="m616 1635c-1 3-8 26-21 40"/>
  <path class="fil2 str7" d="m1810 1638c1 3 8 26 21 40"/>
  <path class="fil2 str7" d="m631 1642s-4 24-14 30"/>
  <path class="fil2 str7" d="m1794 1645s4 24 14 30"/>
  <path class="fil2 str7" d="m652 1705s-16-2-24-1"/>
  <path class="fil2 str7" d="m1773 1708s16-2 24-1"/>
  <path class="fil2 str7" d="m640 1717s-19-3-32 0"/>
  <path class="fil2 str7" d="m1785 1720s19-3 32 0"/>
  <path class="fil2 str7" d="m615 1731s-26-2-32 1"/>
  <path class="fil2 str7" d="m1811 1734s26-2 32 1"/>
  <path class="fil2 str7" d="m594 1745s-18-2-29 1"/>
  <path class="fil2 str7" d="m1832 1748s18-2 29 1"/>
  <path class="fil2 str7" d="m596 1769s0 18-6 25"/>
  <path class="fil2 str7" d="m1829 1772s0 18 6 25"/>
  <path class="fil2 str7" d="m620 1760c0 3-4 22-9 27"/>
  <path class="fil2 str7" d="m1805 1763c0 3 4 22 9 27"/>
  <path class="fil2 str7" d="m641 1746c0 3 1 26-7 35"/>
  <path class="fil2 str7" d="m1784 1749c0 3-1 26 7 35"/>
  <path class="fil2 str7" d="m661 1737s4 22-5 33"/>
  <path class="fil2 str7" d="m1765 1741s-4 22 5 33"/>
  <path class="fil2 str7" d="m678 1733s1 17-5 25"/>
  <path class="fil2 str7" d="m1747 1736s-1 17 5 25"/>
  <path class="fil2 str7" d="m690 1736s3 6-1 12"/>
  <path class="fil2 str7" d="m1736 1739s-3 6 1 12"/>
  <path class="fil2 str7" d="m667 1842s3 13-2 19"/>
  <path class="fil2 str7" d="m1758 1846s-3 13 2 19"/>
  <path class="fil2 str7" d="m692 1821s-3 23-6 27"/>
  <path class="fil2 str7" d="m1734 1824s3 23 6 27"/>
  <path class="fil2 str7" d="m709 1810s2 20-4 29"/>
  <path class="fil2 str7" d="m1717 1813s-2 20 4 29"/>
  <path class="fil2 str7" d="m725 1796s1 16-3 25"/>
  <path class="fil2 str7" d="m1701 1799s-1 16 3 25"/>
  <path class="fil2 str7" d="m746 1782s-3 14-5 21"/>
  <path class="fil2 str7" d="m1680 1786s3 14 5 21"/>
  <path class="fil2 str7" d="m496 1920s-5 16-16 20"/>
  <path class="fil2 str7" d="m1930 1923s5 16 16 20"/>
  <path class="fil2 str7" d="m515 1913s-8 26-18 31"/>
  <path class="fil2 str7" d="m1910 1916s8 26 18 31"/>
  <path class="fil2 str7" d="m542 1900s3 26-10 31"/>
  <path class="fil2 str7" d="m1883 1903s-3 26 10 31"/>
  <path class="fil2 str7" d="m568 1883s0 22-11 29"/>
  <path class="fil2 str7" d="m1858 1886s0 22 11 29"/>
  <path class="fil2 str7" d="m590 1874s0 11-7 19"/>
  <path class="fil2 str7" d="m1835 1877s0 11 7 19"/>
  <path class="fil2 str7" d="m572 1856s-5-2-17 1"/>
  <path class="fil2 str7" d="m1854 1859s5-2 17 1"/>
  <path class="fil2 str7" d="m557 1869s-21-2-28 1"/>
  <path class="fil2 str7" d="m1868 1873s21-2 28 1"/>
  <path class="fil2 str7" d="m532 1881s-14-2-20-1"/>
  <path class="fil2 str7" d="m1893 1884s14-2 20-1"/>
  <path class="fil2 str7" d="m515 1892s-22-3-27-1"/>
  <path class="fil2 str7" d="m1910 1895s22-3 27-1"/>
  <path class="fil2 str7" d="m485 1905s-24 1-27 4"/>
  <path class="fil2 str7" d="m1940 1908s24 1 27 4"/>
  <path class="fil2 str7" d="m425 1840s-13 15-28 16"/>
  <path class="fil2 str7" d="m2e3 1843s13 15 28 16"/>
  <path class="fil2 str7" d="m453 1835s-16 22-32 25"/>
  <path class="fil2 str7" d="m1973 1838s16 22 32 25"/>
  <path class="fil2 str7" d="m476 1834c0 3-16 26-31 30"/>
  <path class="fil2 str7" d="m1949 1837c0 3 16 26 31 30"/>
  <path class="fil2 str7" d="m501 1825s-8 24-18 31"/>
  <path class="fil2 str7" d="m1925 1828s8 24 18 31"/>
  <path class="fil2 str7" d="m518 1815s1 15-7 23"/>
  <path class="fil2 str7" d="m1908 1818s-1 15 7 23"/>
  <path class="fil2 str7" d="m533 1816s-2 9-4 11"/>
  <path class="fil2 str7" d="m1893 1819s2 9 4 11"/>
  <path class="fil2 str7" d="m461 1810s-11-2-17-3"/>
  <path class="fil2 str7" d="m1965 1813s11-2 17-3"/>
  <path class="fil2 str7" d="m429 1816s-6-3-16-2"/>
  <path class="fil2 str7" d="m1996 1819s6-3 16-2"/>
  <path class="fil2 str7" d="m512 1747s-4 16-13 19"/>
  <path class="fil2 str7" d="m1914 1750s4 16 13 19"/>
  <path class="fil2 str7" d="m484 1749s-9 13-22 21"/>
  <path class="fil2 str7" d="m1941 1752s9 13 22 21"/>
  <path class="fil2 str7" d="m457 1753s-12 14-25 20"/>
  <path class="fil2 str7" d="m1969 1757s12 14 25 20"/>
  <path class="fil2 str7" d="m429 1756s-13 19-26 22"/>
  <path class="fil2 str7" d="m1997 1759s13 19 26 22"/>
  <path class="fil2 str7" d="m397 1759s-2 8-15 10"/>
  <path class="fil2 str7" d="m2029 1762s2 8 15 10"/>
  <path class="fil2 str7" d="m373 1753s-11 12-24 12"/>
  <path class="fil2 str7" d="m2053 1756s11 12 24 12"/>
  <path class="fil2 str7" d="m353 1750s-1 8-17 4"/>
  <path class="fil2 str7" d="m2072 1753s1 8 17 4"/>
  <path class="fil2 str7" d="m362 1729s-9-7-15-7"/>
  <path class="fil2 str7" d="m2063 1732s9-7 15-7"/>
  <path class="fil2 str7" d="m388 1727s-8-7-16-7"/>
  <path class="fil2 str7" d="m2037 1730s8-7 16-7"/>
  <path class="fil2 str7" d="m421 1724s-9-4-12-4"/>
  <path class="fil2 str7" d="m2005 1727s9-4 12-4"/>
  <path class="fil2 str7" d="m456 1677s-2 3-11 8"/>
  <path class="fil2 str7" d="m1970 1680s2 3 11 8"/>
  <path class="fil2 str7" d="m442 1664s-13 17-24 22"/>
  <path class="fil2 str7" d="m1984 1667s13 17 24 22"/>
  <path class="fil2 str7" d="m420 1666s-17 16-33 17"/>
  <path class="fil2 str7" d="m2005 1670s17 16 33 17"/>
  <path class="fil2 str7" d="m390 1662s-23 14-36 16"/>
  <path class="fil2 str7" d="m2036 1665s23 14 36 16"/>
  <path class="fil2 str7" d="m364 1656s-19 9-38 7"/>
  <path class="fil2 str7" d="m2061 1659s19 9 38 7"/>
  <path class="fil2 str7" d="m329 1648s-16 5-32 1"/>
  <path class="fil2 str7" d="m2096 1651s16 5 32 1"/>
  <path class="fil2 str7" d="m305 1635s-20 5-32-2"/>
  <path class="fil2 str7" d="m2120 1639s20 5 32-2"/>
  <path class="fil2 str7" d="m292 1616s-11-19-18-21"/>
  <path class="fil2 str7" d="m2133 1619s11-19 18-21"/>
  <path class="fil2 str7" d="m317 1616s-15-25-22-26"/>
  <path class="fil2 str7" d="m2108 1619s15-25 22-26"/>
  <path class="fil2 str7" d="m339 1618s-8-18-15-20"/>
  <path class="fil2 str7" d="m2087 1621s8-18 15-20"/>
  <path class="fil2 str7" d="m366 1619s-9-13-16-14"/>
  <path class="fil2 str7" d="m2060 1622s9-13 16-14"/>
  <path class="fil2 str7" d="m385 1620s-8-9-12-10"/>
  <path class="fil2 str7" d="m2041 1623s8-9 12-10"/>
  <path class="fil2 str7" d="m410 1621s-7-7-11-8"/>
  <path class="fil2 str7" d="m2016 1624s7-7 11-8"/>
  <path class="fil2 str7" d="m408 1572s-10 8-15 10"/>
  <path class="fil2 str7" d="m2018 1575s10 8 15 10"/>
  <path class="fil2 str7" d="m399 1560s-17 13-28 13"/>
  <path class="fil2 str7" d="m2027 1564s17 13 28 13"/>
  <path class="fil2 str7" d="m376 1555s-9 8-21 8"/>
  <path class="fil2 str7" d="m2050 1558s9 8 21 8"/>
  <path class="fil2 str7" d="m358 1545s-31 15-38 13"/>
  <path class="fil2 str7" d="m2067 1548s31 15 38 13"/>
  <path class="fil2 str7" d="m325 1540s-30 2-41 0"/>
  <path class="fil2 str7" d="m2101 1543s30 2 41 0"/>
  <path class="fil2 str7" d="m297 1524s-20 6-38 2"/>
  <path class="fil2 str7" d="m2129 1527s20 6 38 2"/>
  <path class="fil2 str7" d="m278 1505s-29 9-44 3"/>
  <path class="fil2 str7" d="m2148 1508s29 9 44 3"/>
  <path class="fil2 str7" d="m248 1490s-18 3-28-2"/>
  <path class="fil2 str7" d="m2177 1493s18 3 28-2"/>
  <path class="fil2 str7" d="m242 1476s-19-10-24-17"/>
  <path class="fil2 str7" d="m2184 1479s19-10 24-17"/>
  <path class="fil2 str7" d="m256 1477s-18-22-20-27"/>
  <path class="fil2 str7" d="m2170 1480s18-22 20-27"/>
  <path class="fil2 str7" d="m283 1488c0-3-15-23-20-28"/>
  <path class="fil2 str7" d="m2143 1492c0-3 15-23 20-28"/>
  <path class="fil2 str7" d="m314 1496s-9-19-18-25"/>
  <path class="fil2 str7" d="m2111 1499s9-19 18-25"/>
  <path class="fil2 str7" d="m337 1502s-4-13-11-21"/>
  <path class="fil2 str7" d="m2089 1505s4-13 11-21"/>
  <path class="fil2 str7" d="m363 1509s-2-11-13-20"/>
  <path class="fil2 str7" d="m2062 1512s2-11 13-20"/>
  <path class="fil2 str7" d="m387 1512s-8-15-15-20"/>
  <path class="fil2 str7" d="m2039 1515s8-15 15-20"/>
  <path class="fil2 str7" d="m395 1446s-10 4-24 3"/>
  <path class="fil2 str7" d="m2030 1449s10 4 24 3"/>
  <path class="fil2 str7" d="m385 1422s-16 15-35 15"/>
  <path class="fil2 str7" d="m2040 1425s16 15 35 15"/>
  <path class="fil2 str7" d="m376 1409s-26 16-42 16"/>
  <path class="fil2 str7" d="m2050 1412s26 16 42 16"/>
  <path class="fil2 str7" d="m364 1400s-46 19-67 14"/>
  <path class="fil2 str7" d="m2061 1403s46 19 67 14"/>
  <path class="fil2 str7" d="m338 1391s-49 11-70 3"/>
  <path class="fil2 str7" d="m2088 1394s49 11 70 3"/>
  <path class="fil2 str7" d="m310 1373s-23 4-42 1"/>
  <path class="fil2 str7" d="m2116 1376s23 4 42 1"/>
  <path class="fil2 str7" d="m287 1355s-36 2-55-4"/>
  <path class="fil2 str7" d="m2139 1358s36 2 55-4"/>
  <path class="fil2 str7" d="m261 1332s-46-7-74-29"/>
  <path class="fil2 str7" d="m2165 1335s46-7 74-29"/>
  <path class="fil2 str7" d="m235 1307c-3-3-30-13-50-32"/>
  <path class="fil2 str7" d="m2190 1310c3-3 30-13 50-32"/>
  <path class="fil2 str7" d="m215 1281s-32-15-35-27"/>
  <path class="fil2 str7" d="m2211 1284s32-15 35-27"/>
  <path class="fil2 str7" d="m236 1273s-19-28-21-35"/>
  <path class="fil2 str7" d="m2189 1276s19-28 21-35"/>
  <path class="fil2 str7" d="m265 1298c-3-5-23-26-22-36"/>
  <path class="fil2 str7" d="m2161 1301c3-5 23-26 22-36"/>
  <path class="fil2 str7" d="m296 1323c-2-5-17-19-21-31"/>
  <path class="fil2 str7" d="m2130 1327c2-5 17-19 21-31"/>
  <path class="fil2 str7" d="m320 1336c-2-4-15-10-18-22"/>
  <path class="fil2 str7" d="m2106 1339c2-4 15-10 18-22"/>
  <path class="fil2 str7" d="m354 1348s-12-9-17-22"/>
  <path class="fil2 str7" d="m2071 1351s12-9 17-22"/>
  <path class="fil2 str7" d="m382 1358s-6-5-9-15"/>
  <path class="fil2 str7" d="m2044 1361s6-5 9-15"/>
  <path class="fil2 str7" d="m384 1295s-16 2-21-1"/>
  <path class="fil2 str7" d="m2041 1298s16 2 21-1"/>
  <path class="fil2 str7" d="m379 1277s-22 6-34 2"/>
  <path class="fil2 str7" d="m2046 1280s22 6 34 2"/>
  <path class="fil2 str7" d="m370 1263s-27 4-41 1"/>
  <path class="fil2 str7" d="m2056 1266s27 4 41 1"/>
  <path class="fil2 str7" d="m358 1247s-30 4-41 1"/>
  <path class="fil2 str7" d="m2068 1250s30 4 41 1"/>
  <path class="fil2 str7" d="m344 1235s-30-1-39-3"/>
  <path class="fil2 str7" d="m2082 1238s30-1 39-3"/>
  <path class="fil2 str7" d="m320 1215s-17 1-36-8"/>
  <path class="fil2 str7" d="m2105 1219s17 1 36-8"/>
  <path class="fil2 str7" d="m302 1187s-31-4-45-13"/>
  <path class="fil2 str7" d="m2123 1190s31-4 45-13"/>
  <path class="fil2 str7" d="m283 1166s-36-14-57-29"/>
  <path class="fil2 str7" d="m2142 1169s36-14 57-29"/>
  <path class="fil2 str7" d="m267 1138s-40-17-52-31"/>
  <path class="fil2 str7" d="m2158 1141s40-17 52-31"/>
  <path class="fil2 str7" d="m236 1103s-20-12-29-22"/>
  <path class="fil2 str7" d="m2189 1106s20-12 29-22"/>
  <path class="fil2 str7" d="m215 1062s-13-8-17-16"/>
  <path class="fil2 str7" d="m2210 1065s13-8 17-16"/>
  <path class="fil2 str7" d="m249 1065s-12-20-12-29"/>
  <path class="fil2 str7" d="m2176 1068s12-20 12-29"/>
  <path class="fil2 str7" d="m274 1103c-1-4-14-41-11-48"/>
  <path class="fil2 str7" d="m2151 1106c1-4 14-41 11-48"/>
  <path class="fil2 str7" d="m298 1136c-9-16-9-38-11-47"/>
  <path class="fil2 str7" d="m2128 1139c9-16 9-38 11-47"/>
  <path class="fil2 str7" d="m326 1168c-1-5-14-43-14-53"/>
  <path class="fil2 str7" d="m2100 1171c1-5 14-43 14-53"/>
  <path class="fil2 str7" d="m349 1189c0-3-10-38-7-45"/>
  <path class="fil2 str7" d="m2077 1192c0-3 10-38 7-45"/>
  <path class="fil2 str7" d="m371 1206c0-3-7-27-9-34"/>
  <path class="fil2 str7" d="m2055 1209c0-3 7-27 9-34"/>
  <path class="fil2 str7" d="m387 1216s-4-4-4-17"/>
  <path class="fil2 str7" d="m2038 1219s4-4 4-17"/>
  <path class="fil2 str7" d="m451 1037s5-29 6-35"/>
  <path class="fil2 str7" d="m1974 1040s-5-29-6-35"/>
  <path class="fil2 str7" d="m438 1014s1-32 2-39"/>
  <path class="fil2 str7" d="m1988 1017s-1-32-2-39"/>
  <path class="fil2 str7" d="m421 988s3-35 6-44"/>
  <path class="fil2 str7" d="m2004 991s-3-35-6-44"/>
  <path class="fil2 str7" d="m399 952c0-4 1-37 9-57"/>
  <path class="fil2 str7" d="m2026 956c0-4-1-37-9-57"/>
  <path class="fil2 str7" d="m385 928c0-5 1-57 7-65"/>
  <path class="fil2 str7" d="m2041 931c0-5-1-57-7-65"/>
  <path class="fil2 str7" d="m367 885c-1-5 6-48 9-59"/>
  <path class="fil2 str7" d="m2059 888c1-5-6-48-9-59"/>
  <path class="fil2 str7" d="m350 857s-2-45 3-59"/>
  <path class="fil2 str7" d="m2076 860s2-45-3-59"/>
  <path class="fil2 str7" d="m330 821s-2-26-1-35"/>
  <path class="fil2 str7" d="m2096 824s2-26 1-35"/>
  <path class="fil2 str7" d="m317 814s-8-36-9-47"/>
  <path class="fil2 str7" d="m2109 817s8-36 9-47"/>
  <path class="fil2 str7" d="m303 805c-3-6-19-25-24-31"/>
  <path class="fil2 str7" d="m2122 808c3-6 19-25 24-31"/>
  <path class="fil2 str7" d="m309 832c-2-6-26-29-32-32"/>
  <path class="fil2 str7" d="m2116 835c2-6 26-29 32-32"/>
  <path class="fil2 str7" d="m322 866c-2-4-25-25-37-33"/>
  <path class="fil2 str7" d="m2104 869c2-4 25-25 37-33"/>
  <path class="fil2 str7" d="m333 899s-46-36-54-47"/>
  <path class="fil2 str7" d="m2093 902s46-36 54-47"/>
  <path class="fil2 str7" d="m344 925s-46-17-55-28"/>
  <path class="fil2 str7" d="m2082 928s46-17 55-28"/>
  <path class="fil2 str7" d="m358 962s-54-19-63-30"/>
  <path class="fil2 str7" d="m2067 965s54-19 63-30"/>
  <path class="fil2 str7" d="m375 994s-51-22-67-32"/>
  <path class="fil2 str7" d="m2050 998s51-22 67-32"/>
  <path class="fil2 str7" d="m391 1029s-54-19-71-30"/>
  <path class="fil2 str7" d="m2035 1032s54-19 71-30"/>
  <path class="fil2 str7" d="m405 1053s-49-6-73-25"/>
  <path class="fil2 str7" d="m2021 1057s49-6 73-25"/>
  <path class="fil2 str7" d="m409 1078s-57-12-64-21"/>
  <path class="fil2 str7" d="m2016 1081s57-12 64-21"/>
  <line class="fil2 str7" x1="412" x2="369" y1="1095" y2="1086"/>
  <line class="fil2 str7" x1="2013" x2="2056" y1="1099" y2="1089"/>
  <line class="fil2 str7" x1="409" x2="382" y1="1119" y2="1111"/>
  <line class="fil2 str7" x1="2016" x2="2044" y1="1122" y2="1114"/>
  <path class="fil2 str7" d="m415 1140s-22-1-25-4"/>
  <path class="fil2 str7" d="m2011 1143s22-1 25-4"/>
  <path class="fil0" d="m1073 2252s46-336 44-398 8 363-23 408-38 11-21-10z"/>
  <path class="fil0" d="m1353 2255s-46-336-44-398-8 363 23 408 38 11 21-10z"/>
   <polygon class="fil0 str0" points="588 1973 556 2009 541 2015 552 2004"/>
  <path class="fil2" d="m588 1973c-28 33-46 42-46 42"/>
   <polygon class="fil0 str0" points="1838 1976 1869 2012 1884 2018 1873 2007"/>
  <path class="fil2" d="m1838 1976c28 33 46 42 46 42"/>
   <path class="fil0" d="m635 1941c-8 22-16 43-37 57 5-18 24-43 37-57z"/>
  <path class="fil2" d="m635 1941c-15 25-12 23-31 49-1 1-6 7-6 8"/>
   <path class="fil0" d="m1791 1944c8 22 16 43 37 57-5-18-24-43-37-57z"/>
  <path class="fil2" d="m1791 1944c15 25 12 23 31 49 1 1 6 7 6 8"/>
   <path class="fil0" d="m685 1911h-2c4 20-27 55-40 67h2c-1 2-1 2-2 2-16 8 23-42 24-43 16-23 12-33 19-26z"/>
  <path class="fil2" d="m685 1911c-4-1-2-1-4 0 4 16-42 68-42 68 2 1 3 0 5-1"/>
   <path class="fil0" d="m1741 1914h2c-4 20 27 55 40 67h-2c1 2 1 2 2 2 16 8-23-42-24-43-16-23-12-33-19-26z"/>
  <path class="fil2" d="m1741 1914c4-1 2-1 4 0-4 16 42 68 42 68-2 1-3 0-5-1"/>
   <path class="fil0" d="m707 1891c13 34-30 91-49 115h2c-4 5-5 5-3 1l-1-1h1c7-17 49-89 50-115z"/>
  <path class="fil2" d="m707 1891c10 32-51 114-51 116 3 0 1 0 4-1"/>
   <path class="fil0" d="m1718 1894c-13 34 30 91 49 115h-2c4 5 5 5 3 1l1-1h-1c-7-17-49-89-50-115z"/>
  <path class="fil2" d="m1718 1894c-10 32 51 114 51 116-3 0-1 0-4-1"/>
   <path class="fil0" d="m740 1859c3 25 2 98-32 108 21-25 28-77 32-108z"/>
  <path class="fil2" d="m740 1859c0 18 2 25-3 43-5 19-11 56-29 65"/>
   <path class="fil0" d="m1685 1862c-3 25-2 98 32 108-21-25-28-77-32-108z"/>
  <path class="fil2" d="m1685 1862c0 18-2 25 3 43 5 19 11 56 29 65"/>
   <path class="fil0" d="m768 1842c-1 20-8 118-31 121-3 0-1-4 0-5 0 1 1 2 1 2 11-10 24-98 31-118z"/>
  <path class="fil2" d="m768 1842c-9 28 2 47-21 102-3 6-4 16-10 18-1-3 0-1 0-4"/>
   <path class="fil0" d="m1658 1845c1 20 8 118 31 121 3 0 1-4 0-5 0 1-1 2-1 2-11-10-24-98-31-118z"/>
  <path class="fil2" d="m1658 1845c9 28-2 47 21 102 3 6 4 16 10 18 1-3 0-1 0-4"/>
   <path class="fil0" d="m792 1818c4 33 9 91-20 117 12-56 14-58 20-117z"/>
  <path class="fil2" d="m792 1818c0 59 4 52-16 108-2 5-1 4-4 10"/>
   <path class="fil0" d="m1634 1822c-4 33-9 91 20 117-12-56-14-58-20-117z"/>
  <path class="fil2" d="m1634 1822c0 59-4 52 16 108 2 5 1 4 4 10"/>
   <path class="fil0" d="m814 1797c25 9 4 82-1 95 2-25 11-72 1-95z"/>
  <path class="fil2" d="m814 1797c18 13 0 93-1 95"/>
   <path class="fil0" d="m1611 1801c-25 9-4 82 1 95-2-25-11-72-1-95z"/>
  <path class="fil2" d="m1611 1801c-18 13 0 93 1 95"/>
   <path class="fil0" d="m842 1811c10 14 10 18 0 32-2-16-2-15 0-32z"/>
  <path class="fil2" d="m842 1811c4 11 4 21 0 32"/>
   <path class="fil0" d="m1584 1814c-10 14-10 18 0 32 2-16 2-15 0-32z"/>
  <path class="fil2" d="m1584 1814c-4 11-4 21 0 32"/>
   <path class="fil0" d="m904 1851c-34 23-46 23-50 23h-1v-1c8-3 41-18 51-22z"/>
  <path class="fil2" d="m904 1851c-7 5-44 24-51 22h3"/>
   <path class="fil0" d="m1522 1855c34 23 46 23 50 23h1v-1c-8-3-41-18-51-22z"/>
  <path class="fil2" d="m1522 1855c7 5 44 24 51 22h-3"/>
   <path class="fil0" d="m905 1876c-24 6-8 14-55 22 15-6 41-21 55-22z"/>
  <path class="fil2" d="m905 1876c-16 1-22 17-55 22"/>
   <path class="fil0" d="m1521 1880c24 6 8 14 55 22-15-6-41-21-55-22z"/>
  <path class="fil2" d="m1521 1880c16 1 22 17 55 22"/>
   <path class="fil0" d="m888 1908c-11 7-53 30-67 17 22-3 41-12 67-17z"/>
  <path class="fil2" d="m888 1908c-10 4-56 23-67 17"/>
   <path class="fil0" d="m1538 1911c11 7 53 30 67 17-22-3-41-12-67-17z"/>
  <path class="fil2" d="m1538 1911c10 4 56 23 67 17"/>
   <path class="fil0" d="m873 1940c-38 17-18 11-62 18l32-14 30-4z"/>
  <path class="fil2" d="m873 1940s-55 16-62 18"/>
   <path class="fil0" d="m1552 1943c38 17 18 11 62 18l-32-14-30-4z"/>
  <path class="fil2" d="m1552 1943s55 16 62 18"/>
   <polygon class="fil0" points="850 1966 820 1984 776 1996 816 1976"/>
  <path class="fil2" d="m850 1966c-15 4-46 22-74 30"/>
   <polygon class="fil0" points="1576 1969 1606 1987 1650 1999 1610 1979"/>
  <path class="fil2" d="m1576 1969c15 4 46 22 74 30"/>
   <path class="fil0" d="m833 2e3c-36 21-17 12-58 24 37-22 18-14 58-24z"/>
  <path class="fil2" d="m833 2e3c-10 3-46 19-58 24"/>
   <path class="fil0" d="m1593 2003c36 21 17 12 58 24-37-22-18-14-58-24z"/>
  <path class="fil2" d="m1593 2003c10 3 46 19 58 24"/>
   <path class="fil0" d="m811 2025c-29 16-31 20-62 24 26-19 29-16 62-24z"/>
  <path class="fil2" d="m811 2025c-2 0-62 24-62 24"/>
   <path class="fil0" d="m1614 2028c29 16 31 20 62 24-26-19-29-16-62-24z"/>
  <path class="fil2" d="m1614 2028c2 0 62 24 62 24"/>
   <path class="fil0" d="m784 2052c-33 38-15 22-54 47l26-33 28-14z"/>
  <path class="fil2" d="m784 2052c-6 5-46 36-54 47"/>
   <path class="fil0" d="m1642 2055c33 38 15 22 54 47l-26-33-28-14z"/>
  <path class="fil2" d="m1642 2055c6 5 46 36 54 47"/>
   <path class="fil0" d="m928 1894c-52 61-77 112-128 172 43-57 97-146 121-178l7 6zm-128 172c-4 4-8 9-12 14l-21 23-9 10c11-8 26-25 42-46zm-42 46l-1 1c-2 4-5 7-8 10 1 0 2-1 2-1-1 1-2 1-2 1 0-1 8-10 8-11l1-1zm-7 11s1 0 2-1c-1 0-1 1-2 1z"/>
  <path class="fil2" d="m925 1891c-23 26-37 47-55 77-22 37-23 40-48 73-4 6-64 72-64 73 0 2-7 9-9 11 3-1 1 0 5-3"/>
   <path class="fil0" d="m1497 1897c52 61 77 112 128 172-43-57-97-146-121-178l-7 6zm128 172c4 4 8 9 12 14l21 23 9 10c-11-8-26-25-42-46zm42 46l1 1c2 4 5 7 8 10-1 0-2-1-2-1 1 1 2 1 2 1 0-1-8-10-8-11l-1-1zm7 11s-1 0-2-1c1 0 1 1 2 1z"/>
  <path class="fil2" d="m1501 1894c23 26 37 47 55 77 22 37 23 40 48 73 4 6 64 72 64 73 0 2 7 9 9 11-3-1-1 0-5-3"/>
   <path class="fil0" d="m811 2073c5 21 10 48-7 65 4-23 2-39 7-65z"/>
  <path class="fil2" d="m811 2073c0 16 3 52-7 65"/>
   <path class="fil0" d="m1614 2076c-5 21-10 48 7 65-4-23-2-39-7-65z"/>
  <path class="fil2" d="m1614 2076c0 16-3 52 7 65"/>
   <path class="fil0" d="m840 2031c3 13 12 104-5 97 7-11 5-82 5-97z"/>
  <path class="fil2" d="m840 2031c2 8 7 95-5 97"/>
   <path class="fil0" d="m1585 2034c-3 13-12 104 5 97-7-11-5-82-5-97z"/>
  <path class="fil2" d="m1585 2034c-2 8-7 95 5 97"/>
   <path class="fil0" d="m869 1988c0 23 4 106-16 121 9-42 6-81 16-121z"/>
  <path class="fil2" d="m869 1988c-8 35 5 59-10 102-2 6-2 15-6 20"/>
   <path class="fil0" d="m1556 1992c0 23-4 106 16 121-9-42-6-81-16-121z"/>
  <path class="fil2" d="m1556 1992c8 35-5 59 10 102 2 6 2 15 6 20"/>
   <path class="fil0" d="m893 1950c1 6 11 108-7 95 7-7 5-78 7-95z"/>
  <path class="fil2" d="m893 1950c0 14 7 96-7 95"/>
   <path class="fil0" d="m1532 1953c-1 6-11 108 7 95-7-7-5-78-7-95z"/>
  <path class="fil2" d="m1532 1953c0 14-7 96 7 95"/>
   <path class="fil0" d="m917 1925c-1-9 1-9 3-4 6 14 15 58-3 84 4-25 1-55 1-82l-1 1z"/>
  <path class="fil2" d="m917 1925c2-5 0-3 3-5 1 22 8 68-3 85"/>
   <path class="fil0" d="m1509 1928c1-9-1-9-3-4-6 14-15 58 3 84-4-25-1-55-1-82l1 1z"/>
  <path class="fil2" d="m1509 1928c-2-5 0-3-3-5-1 22-8 68 3 85"/>
   <path class="fil0" d="m947 1905c15 16 8 34-1 50 0-19 3-32 1-50z"/>
  <path class="fil2" d="m947 1905c9 13 3 36-1 50"/>
   <path class="fil0" d="m1478 1909c-15 16-8 34 1 50 0-19-3-32-1-50z"/>
  <path class="fil2" d="m1478 1909c-9 13-3 36 1 50"/>
   <path class="fil0" d="m1046 1936c-3 79-31 160-51 237 0 0 0 1-1 1s-1-1-1-3v-3l1 1c1-7 4-20 4-20 14-70 37-139 39-210l9-3z"/>
  <path class="fil2" d="m1042 1937c8 26-30 149-36 186-1 8-11 45-11 49 0-2-1-2-1-5"/>
   <path class="fil0" d="m1379 1939c3 79 31 160 51 237 0 0 0 1 1 1s1-1 1-3v-3l-1 1c-1-7-4-20-4-20-14-70-37-139-39-210l-9-3z"/>
  <path class="fil2" d="m1384 1940c-8 26 30 149 36 186 1 8 11 45 11 49 0-2 1-2 1-5"/>
   <path class="fil0" d="m1076 1938c14-7 23 34 21 51-7-17-11-40-21-51z"/>
  <path class="fil2" d="m1076 1938c14 1 21 47 21 51"/>
   <path class="fil0" d="m1349 1941c-14-7-23 34-21 51 7-17 11-40 21-51z"/>
  <path class="fil2" d="m1349 1941c-14 1-21 47-21 51"/>
   <path class="fil0" d="m1067 1949c14 0 29 77 14 74 4-17-10-55-14-74z"/>
  <path class="fil2" d="m1067 1949c7 3 26 68 14 74"/>
   <path class="fil0" d="m1359 1952c-14 0-29 77-14 74-4-17 10-55 14-74z"/>
  <path class="fil2" d="m1359 1952c-7 3-26 68-14 74"/>
   <path class="fil0" d="m1053 1998c11 17 19 70 24 94l1 1c3 8 2 8-1 3h-2c0-1 1-2 1-2 0-1-1-2-1-2l-1-1c-9-17-25-57-20-93z"/>
  <path class="fil2" d="m1053 1998l1 6c5 22 16 78 22 94 1-4 0-6-4-6"/>
   <path class="fil0" d="m1373 2001c-11 17-19 70-24 94l-1 1c-3 8-2 8 1 3h2c0-1-1-2-1-2 0-1 1-2 1-2l1-1c9-17 25-57 20-93z"/>
  <path class="fil2" d="m1373 2001l-1 6c-5 22-16 78-22 94-1-4 0-6 4-6"/>
   <path class="fil0" d="m1009 2162c14 19 15 28 8 50-3-18-6-32-8-50z"/>
  <path class="fil2" d="m1009 2162c6 10 11 37 8 50"/>
   <path class="fil0" d="m1417 2165c-14 19-15 28-8 50 3-18 6-32 8-50z"/>
  <path class="fil2" d="m1417 2165c-6 10-11 37-8 50"/>
   <path class="fil0" d="m1013 2127c-1-2-1-3 1-1l1-1v3c7 7 20 29 26 69 1 7 2 13-2 19-3-23-20-67-27-89z"/>
  <path class="fil2" d="m1016 2131c-1-4-1-3-2-5 5 7 32 78 27 91"/>
   <path class="fil0" d="m1412 2130c1-2 1-3-1-1l-1-1v3c-7 7-20 29-26 69-1 7-2 13 2 19 3-23 20-67 27-89z"/>
  <path class="fil2" d="m1410 2134c1-4 1-3 2-5-5 7-32 78-27 91"/>
   <path class="fil0" d="m1033 2085c10 23 16 64 20 91 2 1 5 2 4 4-2 43-26-73-24-95zm20 94v1zm-2 3z"/>
  <path class="fil2" d="m1033 2085l2 11c1 5 17 88 17 89 2 0 3-3 4-5-1-2-4-3-7-4"/>
   <path class="fil0" d="m1393 2088c-10 23-16 64-20 91-2 1-5 2-4 4 2 43 26-73 24-95zm-20 94v1zm2 3z"/>
  <path class="fil2" d="m1393 2088l-2 11c-1 5-17 88-17 89-2 0-3-3-4-5 1-2 4-3 7-4"/>
   <path class="fil0" d="m1039 2038c1 1 42 99 29 96-7-33-21-50-29-96z"/>
  <path class="fil2" d="m1039 2038c4 19 34 92 29 96"/>
   <path class="fil0" d="m1386 2042c-1 1-42 99-29 96 7-33 21-50 29-96z"/>
  <path class="fil2" d="m1386 2042c-4 19-34 92-29 96"/>
   <path class="fil0" d="m1031 1926c-13 9-30 20-43 30 0 0 0 1 1 2-16 1 20-35 42-32z"/>
  <path class="fil2" d="m1031 1926c-10 0-41 23-45 30 1 1 1 1 3 2"/>
   <path class="fil0" d="m1394 1930c13 9 30 20 43 30 0 0 0 1-1 2 16 1-20-35-42-32z"/>
  <path class="fil2" d="m1394 1930c10 0 41 23 45 30-1 1-1 1-3 2"/>
   <path class="fil0" d="m1026 1949c-25 25-39 37-67 57 1 0 1 0 3 1-31 19 33-42 65-58zm-70 56z"/>
  <path class="fil2" d="m1026 1949c-4 1-69 56-71 58 1 1 5 0 6 0"/>
   <path class="fil0" d="m1399 1952c25 25 39 37 67 57-1 0-1 0-3 1 31 19-33-42-65-58zm70 56z"/>
  <path class="fil2" d="m1399 1952c4 1 69 56 71 58-1 1-5 0-6 0"/>
   <path class="fil0" d="m1021 1978c-13 13-41 44-55 55-6-11 41-49 55-55z"/>
  <path class="fil2" d="m1021 1978c-8 1-56 49-55 55"/>
   <path class="fil0" d="m1405 1981c13 13 41 44 55 55 6-11-41-49-55-55z"/>
  <path class="fil2" d="m1405 1981c8 1 56 49 55 55"/>
   <path class="fil0" d="m1014 2009c-3 3-61 60-67 58-5-7 56-52 67-58z"/>
  <path class="fil2" d="m1014 2009c-4 0-69 57-67 58"/>
   <path class="fil0" d="m1411 2013c3 3 61 60 67 58 5-7-56-52-67-58z"/>
  <path class="fil2" d="m1411 2013c4 0 69 57 67 58"/>
   <path class="fil0" d="m1e3 2045c-24 27-40 46-67 70 19-33 35-50 67-70z"/>
  <path class="fil2" d="m1e3 2045c-10 4-65 66-67 70"/>
   <path class="fil0" d="m1426 2048c24 27 40 46 67 70-19-33-35-50-67-70z"/>
  <path class="fil2" d="m1426 2048c10 4 65 66 67 70"/>
   <path class="fil0" d="m997 2074c-21 32-36 49-63 76 24-40 29-47 63-76z"/>
  <path class="fil2" d="m997 2074l-27 31c-14 15-25 33-36 46"/>
   <path class="fil0" d="m1428 2077c21 32 36 49 63 76-24-40-29-47-63-76z"/>
  <path class="fil2" d="m1428 2077l27 31c14 15 25 33 36 46"/>
   <path class="fil0" d="m993 2102c-10 20-29 40-45 57-8-10 37-51 45-57z"/>
  <path class="fil2" d="m993 2102l-12 14c-7 8-33 34-33 42"/>
   <path class="fil0" d="m1432 2105c10 20 29 40 45 57 8-10-37-51-45-57z"/>
  <path class="fil2" d="m1432 2105l12 14c7 8 33 34 33 42"/>
   <path class="fil0" d="m981 2140c-13 22-25 32-41 50-4-16 31-44 41-50z"/>
  <path class="fil2" d="m981 2140c-4 4-41 40-41 50"/>
   <path class="fil0" d="m1444 2143c13 22 25 32 41 50 4-16-31-44-41-50z"/>
  <path class="fil2" d="m1444 2143c4 4 41 40 41 50"/>
   <path class="fil0" d="m976 2177c1 19-8 30-18 45 3-15 6-34 18-45z"/>
  <path class="fil2" d="m976 2177l-3 6c-4 9-11 32-16 39"/>
   <path class="fil0" d="m1449 2180c-1 19 8 30 18 45-3-15-6-34-18-45z"/>
  <path class="fil2" d="m1449 2180l3 6c4 9 11 32 16 39"/>
  <circle class="fil0" cx="1204" cy="1597" r="7"/>
  <circle class="fil0" cx="1196" cy="1620" r="7"/>
  <circle class="fil0" cx="1235" cy="1644" r="5"/>
  <circle class="fil0" cx="1232" cy="1625" r="4"/>
  <circle class="fil0" cx="1204" cy="1634" r="7"/>
    <path class="fil1" d="m1258 1637c-6 8-15 25-25 27h-33c-7-3-15-11-22-23l-4-7-12 11-7 39 5 58 9 34 16 29 20 15 20 1 15-8 14-18 9-21 6-20 4-21 2-25 1-24-2-32-16-16z"/>
    <path class="fil2 str4" d="m1273 1642c13 107-7 176-51 180-45 4-76-71-63-180"/>
    <path class="fil0" d="m1225 1661c1 4 2 86-12 123 3-16 2-89-9-127l21 4z"/>
   <circle class="fil0" cx="1285" cy="1795" r="6"/>
   <circle class="fil0" cx="1162" cy="1775" r="8"/>
   <circle class="fil0" cx="1237" cy="1763" r="8"/>
   <circle class="fil0" cx="1277" cy="1760" r="6"/>
   <circle class="fil0" cx="1157" cy="1737" r="7"/>
   <circle class="fil0" cx="1259" cy="1724" r="7"/>
   <circle class="fil0" cx="1175" cy="1759" r="4"/>
   <circle class="fil0" cx="1251" cy="1762" r="4"/>
   <circle class="fil0" cx="1180" cy="1740" r="5"/>
   <circle class="fil0" cx="1246" cy="1743" r="5"/>
   <circle class="fil0" cx="1180" cy="1721" r="7"/>
   <circle class="fil0" cx="1234" cy="1725" r="7"/>
   <circle class="fil0" cx="1184" cy="1705" r="6"/>
   <circle class="fil0" cx="1242" cy="1708" r="6"/>
   <circle class="fil0" cx="1191" cy="1674" r="10"/>
   <circle class="fil0" cx="1235" cy="1677" r="10"/>
   <circle class="fil0" cx="1170" cy="1684" r="8"/>
   <circle class="fil0" cx="1264" cy="1687" r="8"/>
   <circle class="fil0" cx="1170" cy="1657" r="6"/>
   <circle class="fil0" cx="1262" cy="1660" r="6"/>
   <circle class="fil0" cx="1159" cy="1822" r="8"/>
   <circle class="fil0" cx="1266" cy="1825" r="8"/>
   <circle class="fil0" cx="1280" cy="1849" r="4"/>
   <circle class="fil0" cx="1204" cy="1758" r="7"/>
   <circle class="fil0" cx="1196" cy="1780" r="7"/>
   <circle class="fil0" cx="1235" cy="1804" r="5"/>
   <circle class="fil0" cx="1232" cy="1786" r="4"/>
   <circle class="fil0" cx="1204" cy="1794" r="7"/>
</svg>
